<svg xmlns="http://www.w3.org/2000/svg" width="256" height="256" viewBox="0 0 100 100"><rect width="100" height="100" rx="20" fill="#6181f7"></rect><path fill="#fff" d="M52.40 68Q47.10 68 42.83 65.67Q38.55 63.35 36.13 59.25Q33.70 55.15 33.70 50L33.70 50Q33.70 44.85 36.15 40.75Q38.60 36.65 42.88 34.32Q47.15 32 52.45 32L52.45 32Q56.75 32 60.30 33.50Q63.85 35 66.30 37.85L66.30 37.85L62.10 41.80Q58.30 37.70 52.75 37.70L52.75 37.70Q49.15 37.70 46.30 39.27Q43.45 40.85 41.85 43.65Q40.25 46.45 40.25 50L40.25 50Q40.25 53.55 41.85 56.35Q43.45 59.15 46.30 60.73Q49.15 62.30 52.75 62.30L52.75 62.30Q58.30 62.30 62.10 58.15L62.10 58.15L66.30 62.15Q63.85 65 60.28 66.50Q56.70 68 52.40 68L52.40 68Z"></path></svg>