<svg width="26" height="26" viewBox="0 0 26 26" fill="none" xmlns="http://www.w3.org/2000/svg">
<g clip-path="url(#clip0_104_881)">
<path d="M24.9183 13.2073C24.9183 12.3701 24.8504 11.5283 24.7056 10.7047H13.0884V15.4475H19.741C19.4649 16.9771 18.5779 18.3303 17.2791 19.1901V22.2675H21.248C23.5787 20.1224 24.9183 16.9545 24.9183 13.2073Z" fill="#4285F4"/>
<path d="M13.0882 25.2409C16.41 25.2409 19.2114 24.1502 21.2524 22.2676L17.2835 19.1902C16.1792 19.9414 14.7537 20.3668 13.0928 20.3668C9.87961 20.3668 7.15521 18.1991 6.17768 15.2846H2.08203V18.457C4.17285 22.616 8.43142 25.2409 13.0882 25.2409Z" fill="#34A853"/>
<path d="M6.17325 15.2847C5.65734 13.755 5.65734 12.0987 6.17325 10.569V7.39658H2.08213C0.335254 10.8767 0.335254 14.9769 2.08213 18.4571L6.17325 15.2847Z" fill="#FBBC04"/>
<path d="M13.0882 5.48218C14.8442 5.45503 16.5413 6.11576 17.813 7.32862L21.3293 3.81224C19.1027 1.72142 16.1475 0.571925 13.0882 0.60813C8.43142 0.60813 4.17285 3.23297 2.08203 7.3965L6.17316 10.5689C7.14616 7.64994 9.87508 5.48218 13.0882 5.48218Z" fill="#EA4335"/>
</g>
<defs>
<clipPath id="clip0_104_881">
<rect width="24.6327" height="24.6327" fill="white" transform="translate(0.525391 0.6073)"/>
</clipPath>
</defs>
</svg>
