<svg width="184" height="161" viewBox="0 0 184 161" fill="none" xmlns="http://www.w3.org/2000/svg">
<g clip-path="url(#clip0_40_343)">
<path d="M184 38.2596H183.115V14.0258C183.115 10.3059 181.634 6.73841 178.998 4.10806C176.362 1.47771 172.787 1.82959e-09 169.06 1.82958e-09H117.61C115.765 -2.97472e-05 113.937 0.362729 112.232 1.06756C110.527 1.7724 108.977 2.80551 107.672 4.1079C106.367 5.41029 105.332 6.95647 104.625 8.65815C103.919 10.3598 103.555 12.1837 103.555 14.0256V146.974C103.555 150.694 105.036 154.262 107.672 156.892C110.308 159.522 113.883 161 117.61 161H169.059C172.787 161 176.362 159.522 178.997 156.892C181.633 154.262 183.114 150.694 183.114 146.974V55.5097H183.999L184 38.2596Z" fill="#3F3D56"/>
<path d="M180.248 13.0864V147.913C180.248 150.734 179.125 153.438 177.127 155.433C175.129 157.427 172.419 158.548 169.593 158.549H117.087C114.26 158.55 111.548 157.429 109.549 155.435C107.549 153.44 106.425 150.735 106.425 147.913V13.0864C106.425 10.265 107.549 7.55951 109.549 5.56493C111.548 3.57036 114.26 2.45005 117.087 2.45041H123.456C123.143 3.2179 123.024 4.0503 123.11 4.87446C123.195 5.69861 123.481 6.48927 123.944 7.17696C124.407 7.86465 125.033 8.4283 125.765 8.81837C126.498 9.20844 127.315 9.41299 128.145 9.41404H158.079C158.909 9.41299 159.727 9.20844 160.459 8.81837C161.192 8.4283 161.817 7.86465 162.28 7.17696C162.743 6.48927 163.03 5.69861 163.115 4.87446C163.2 4.0503 163.081 3.2179 162.768 2.45041H169.591C172.417 2.45089 175.127 3.57133 177.126 5.56542C179.124 7.5595 180.247 10.264 180.248 13.0843V13.0864Z" fill="white"/>
<path d="M143.9 67.0255C137.922 67.0277 132.188 64.6601 127.959 60.4436C123.73 56.227 121.353 50.5068 121.35 44.5412V44.5212C121.35 44.4741 121.35 44.4245 121.353 44.3774C121.421 32.054 131.537 22.0186 143.9 22.0186C149.88 22.0182 155.616 24.3888 159.845 28.6087C164.074 32.8286 166.45 38.5522 166.45 44.5204C166.451 50.4886 164.075 56.2125 159.847 60.4329C155.618 64.6533 149.883 67.0245 143.902 67.0248H143.9V67.0255ZM143.9 22.492C138.072 22.505 132.484 24.8126 128.351 28.9133C124.218 33.0141 121.874 38.5767 121.828 44.3926C121.825 44.4428 121.825 44.4832 121.825 44.5215C121.825 48.879 123.119 53.1389 125.544 56.7623C127.97 60.3858 131.418 63.2101 135.452 64.8782C139.486 66.5462 143.925 66.9831 148.207 66.1335C152.49 65.2839 156.424 63.186 159.512 60.1052C162.6 57.0243 164.703 53.0988 165.556 48.8251C166.408 44.5514 165.971 40.1214 164.301 36.0953C162.63 32.0693 159.801 28.628 156.171 26.2066C152.54 23.7852 148.272 22.4926 143.906 22.492H143.9Z" fill="#E6E6E6"/>
<path d="M167.217 90.6848H120.56C120.331 90.6846 120.112 90.5936 119.95 90.432C119.788 90.2704 119.697 90.0512 119.696 89.8226V78.2731C119.697 78.0445 119.788 77.8254 119.95 77.6637C120.112 77.5021 120.331 77.4112 120.56 77.4109H167.217C167.446 77.4112 167.666 77.5021 167.828 77.6637C167.99 77.8254 168.081 78.0445 168.081 78.2731V89.8228C168.081 90.0514 167.99 90.2705 167.828 90.4322C167.666 90.5938 167.446 90.6847 167.217 90.685V90.6848ZM120.56 77.7557C120.423 77.7558 120.291 77.8103 120.194 77.9073C120.097 78.0043 120.042 78.1359 120.042 78.2731V89.8228C120.042 89.96 120.097 90.0916 120.194 90.1886C120.291 90.2856 120.423 90.3401 120.56 90.3402H167.217C167.355 90.3401 167.486 90.2856 167.584 90.1886C167.681 90.0916 167.736 89.96 167.736 89.8228V78.2731C167.736 78.1359 167.681 78.0043 167.584 77.9073C167.486 77.8103 167.355 77.7558 167.217 77.7557H120.56Z" fill="#E6E6E6"/>
<path d="M134.989 81.6337C134.829 81.6337 134.675 81.6973 134.562 81.8105C134.448 81.9237 134.385 82.0772 134.385 82.2373C134.385 82.3974 134.448 82.5509 134.562 82.6641C134.675 82.7773 134.829 82.8409 134.989 82.8409H163.502C163.581 82.8439 163.66 82.8313 163.735 82.8038C163.809 82.7763 163.878 82.7344 163.936 82.6805C163.994 82.6267 164.041 82.5618 164.075 82.4898C164.108 82.4178 164.126 82.3399 164.129 82.2607C164.132 82.1815 164.12 82.1024 164.092 82.0281C164.065 81.9537 164.023 81.8855 163.969 81.8274C163.915 81.7692 163.85 81.7222 163.778 81.6891C163.705 81.656 163.627 81.6374 163.548 81.6343C163.539 81.634 163.53 81.6339 163.521 81.6339H134.989V81.6337Z" fill="#E6E6E6"/>
<path d="M134.989 85.255C134.829 85.255 134.675 85.3186 134.562 85.4318C134.448 85.545 134.385 85.6986 134.385 85.8586C134.385 86.0187 134.448 86.1723 134.562 86.2854C134.675 86.3986 134.829 86.4622 134.989 86.4622H163.502C163.581 86.4653 163.66 86.4527 163.735 86.4252C163.809 86.3977 163.878 86.3558 163.936 86.3019C163.994 86.248 164.041 86.1832 164.075 86.1112C164.108 86.0392 164.126 85.9613 164.129 85.8821C164.132 85.8029 164.12 85.7238 164.092 85.6495C164.065 85.5751 164.023 85.5069 163.969 85.4487C163.915 85.3906 163.85 85.3436 163.778 85.3105C163.705 85.2773 163.627 85.2587 163.548 85.2557C163.539 85.2554 163.53 85.2552 163.521 85.2553H134.989V85.255Z" fill="#E6E6E6"/>
<path d="M167.217 109.999H120.56C120.331 109.999 120.112 109.908 119.95 109.746C119.788 109.585 119.697 109.365 119.696 109.137V97.5873C119.697 97.3587 119.788 97.1396 119.95 96.9779C120.112 96.8163 120.331 96.7254 120.56 96.7251H167.217C167.446 96.7254 167.666 96.8163 167.828 96.9779C167.99 97.1396 168.081 97.3587 168.081 97.5873V109.137C168.081 109.366 167.99 109.585 167.828 109.746C167.666 109.908 167.446 109.999 167.217 109.999ZM120.56 97.0699C120.423 97.07 120.291 97.1245 120.194 97.2215C120.097 97.3186 120.042 97.4501 120.042 97.5873V109.137C120.042 109.274 120.097 109.406 120.194 109.503C120.291 109.6 120.423 109.654 120.56 109.654H167.217C167.355 109.654 167.486 109.6 167.584 109.503C167.681 109.406 167.736 109.274 167.736 109.137V97.5873C167.736 97.4501 167.681 97.3186 167.584 97.2215C167.486 97.1245 167.355 97.07 167.217 97.0699H120.56Z" fill="#E6E6E6"/>
<path d="M134.989 100.947C134.829 100.947 134.675 101.011 134.562 101.124C134.448 101.237 134.385 101.39 134.385 101.551C134.385 101.711 134.448 101.864 134.562 101.977C134.675 102.091 134.829 102.154 134.989 102.154H163.502C163.66 102.153 163.811 102.091 163.924 101.98C164.036 101.869 164.101 101.718 164.103 101.56C164.106 101.403 164.046 101.25 163.938 101.135C163.829 101.021 163.679 100.953 163.521 100.947H134.989V100.947Z" fill="#E6E6E6"/>
<path d="M134.989 104.569C134.829 104.569 134.675 104.633 134.562 104.746C134.448 104.859 134.385 105.013 134.385 105.173C134.385 105.333 134.448 105.486 134.562 105.6C134.675 105.713 134.829 105.776 134.989 105.776H163.502C163.66 105.776 163.811 105.713 163.924 105.602C164.036 105.491 164.101 105.34 164.103 105.183C164.106 105.025 164.046 104.872 163.938 104.758C163.829 104.643 163.679 104.576 163.521 104.569H134.989V104.569Z" fill="#E6E6E6"/>
<path d="M167.217 129.313H120.56C120.331 129.313 120.112 129.222 119.95 129.06C119.788 128.898 119.697 128.679 119.696 128.451V116.901C119.697 116.672 119.788 116.453 119.95 116.292C120.112 116.13 120.331 116.039 120.56 116.039H167.217C167.446 116.039 167.666 116.13 167.828 116.292C167.99 116.453 168.081 116.672 168.081 116.901V128.451C168.081 128.679 167.99 128.899 167.828 129.06C167.666 129.222 167.446 129.313 167.217 129.313V129.313ZM120.56 116.384C120.423 116.384 120.291 116.438 120.194 116.535C120.097 116.632 120.042 116.764 120.042 116.901V128.451C120.042 128.588 120.097 128.72 120.194 128.817C120.291 128.914 120.423 128.968 120.56 128.968H167.217C167.355 128.968 167.486 128.914 167.584 128.817C167.681 128.72 167.736 128.588 167.736 128.451V116.901C167.736 116.764 167.681 116.632 167.584 116.535C167.486 116.438 167.355 116.384 167.217 116.384H120.56Z" fill="#E6E6E6"/>
<path d="M134.989 120.261C134.829 120.261 134.675 120.325 134.562 120.438C134.448 120.551 134.385 120.705 134.385 120.865C134.385 121.025 134.448 121.179 134.562 121.292C134.675 121.405 134.829 121.469 134.989 121.469H163.502C163.581 121.472 163.66 121.459 163.735 121.432C163.809 121.404 163.878 121.362 163.936 121.308C163.994 121.254 164.041 121.19 164.075 121.118C164.108 121.046 164.126 120.968 164.129 120.888C164.132 120.809 164.12 120.73 164.092 120.656C164.065 120.581 164.023 120.513 163.969 120.455C163.915 120.397 163.85 120.35 163.778 120.317C163.705 120.284 163.627 120.265 163.548 120.262C163.539 120.262 163.53 120.262 163.521 120.262H134.989V120.261Z" fill="#E6E6E6"/>
<path d="M134.989 123.883C134.829 123.883 134.675 123.947 134.562 124.06C134.448 124.173 134.385 124.327 134.385 124.487C134.385 124.647 134.448 124.8 134.562 124.913C134.675 125.027 134.829 125.09 134.989 125.09H163.502C163.581 125.093 163.66 125.081 163.735 125.053C163.809 125.026 163.878 124.984 163.936 124.93C163.994 124.876 164.041 124.811 164.075 124.739C164.108 124.667 164.126 124.589 164.129 124.51C164.132 124.431 164.12 124.352 164.092 124.277C164.065 124.203 164.023 124.135 163.969 124.077C163.915 124.019 163.85 123.972 163.778 123.938C163.705 123.905 163.627 123.887 163.548 123.884C163.539 123.883 163.53 123.883 163.521 123.883H134.989V123.883Z" fill="#E6E6E6"/>
<path d="M151.025 43.9753H144.449V37.4124H143.353V43.9753H136.776V45.069H143.353V51.6319H144.449V45.069H151.025V43.9753Z" fill="#052943"/>
<path d="M50.0363 126.504C50.0363 126.504 44.6591 132.381 43.8909 145.924C43.1228 159.467 42.8667 161 42.8667 161H62.0709L65.6539 151.802L69.7517 160.999H87.9315C87.9315 160.999 89.9799 132.891 87.9315 132.125C85.883 131.358 50.0363 126.504 50.0363 126.504Z" fill="#2F2E41"/>
<path d="M75.7691 57.3838C80.8599 57.3838 84.9869 53.2653 84.9869 48.1849C84.9869 43.1046 80.8599 38.9861 75.7691 38.9861C70.6782 38.9861 66.5513 43.1046 66.5513 48.1849C66.5513 53.2653 70.6782 57.3838 75.7691 57.3838Z" fill="#FFB8B8"/>
<path d="M115.586 126.76L101.503 101.208L93.3081 87.9202L103.039 83.576L108.416 94.0527C108.416 94.0527 115.586 104.529 117.378 113.217C119.17 121.906 120.963 125.994 120.963 125.994L115.586 126.76Z" fill="#FFB8B8"/>
<path d="M38.0001 119.349L58.9965 100.951L57.9734 86.1306H52.0841L50.2908 93.7965L33.3914 116.027L38.0001 119.349Z" fill="#FFB8B8"/>
<path d="M65.1428 61.8562C65.1428 61.8562 72.7473 65.0376 78.4186 61.1472C78.4186 61.1472 92.2843 63.3898 93.0524 64.156C93.8206 64.9221 92.2843 87.9193 92.2843 87.9193L89.212 100.952C89.212 100.952 93.565 120.883 87.1636 125.993L88.4439 132.893C88.4439 132.893 60.0221 134.937 48.7556 128.038L50.8036 121.138L56.1808 99.4181L52.8521 69.2666C52.8521 69.2666 55.4117 62.3673 65.1428 61.8562Z" fill="#E4E4E4"/>
<path d="M86.5232 65.3054L93.1806 64.2842C93.1806 64.2842 96.5094 64.7953 99.5821 71.1835C102.655 77.5717 105.983 86.004 105.983 86.004L94.4612 91.1145L84.9873 76.2941L86.5232 65.3054Z" fill="#E4E4E4"/>
<path d="M54.389 67.9887L52.8527 69.2663C52.8527 69.2663 50.8042 76.6767 50.8042 81.787V88.6863L60.0222 89.7085L54.389 67.9887Z" fill="#E4E4E4"/>
<path d="M66.5538 50.6816C66.5538 50.6816 65.3007 49.3312 65.4276 47.6408C65.5112 46.6792 65.4496 45.7106 65.2449 44.7672C65.2449 44.7672 65.6371 42.0006 66.2162 40.3967C66.7953 38.7929 66.307 38.2349 68.7963 37.3594C71.2856 36.4838 69.7009 33.3178 77.0396 35.8416C77.3187 36.1229 77.675 36.3153 78.0637 36.3947C78.4523 36.474 78.8557 36.4367 79.2231 36.2874C80.5781 35.7922 81.3946 37.6498 81.3946 37.6498C81.3946 37.6498 82.2397 36.9577 82.7139 37.6772C83.1881 38.3967 85.4817 36.757 86.3232 41.9906C87.1647 47.2242 84.277 51.8915 84.277 51.8915C84.277 51.8915 83.8718 43.5165 79.1057 43.3645C74.3396 43.2125 68.9497 41.4112 68.2812 44.9378C67.6127 48.4645 66.5538 50.6816 66.5538 50.6816Z" fill="#2F2E41"/>
<path d="M34.6414 123.263C36.8354 123.263 38.614 121.488 38.614 119.299C38.614 117.109 36.8354 115.334 34.6414 115.334C32.4475 115.334 30.6689 117.109 30.6689 119.299C30.6689 121.488 32.4475 123.263 34.6414 123.263Z" fill="#FFB8B8"/>
<path d="M6.00293 146.074L71.428 133.041L65.9605 105.708L0.5354 118.74L6.00293 146.074Z" fill="white"/>
<path d="M71.9636 133.398L5.64595 146.609L0 118.383L66.3176 105.173L71.9636 133.398ZM6.36054 145.54L70.8931 132.685L65.6033 106.241L1.07099 119.097L6.36054 145.54Z" fill="#E4E4E4"/>
<path d="M27.335 137.386L27.3081 137.397C27.0948 137.485 26.8785 137.568 26.6564 137.64C26.5817 137.666 26.5043 137.689 26.4293 137.712C26.3543 137.734 26.2768 137.758 26.1991 137.779C26.0728 137.816 25.9434 137.848 25.8133 137.878C25.7576 137.892 25.699 137.904 25.6428 137.916L25.6091 137.923C25.5394 137.938 25.4697 137.953 25.3995 137.966L25.218 137.997C25.1843 138.004 25.151 138.009 25.1181 138.014C23.6753 138.24 22.1999 138.136 20.8029 137.711C19.406 137.286 18.1238 136.55 17.0528 135.56C15.9817 134.569 15.1498 133.348 14.6194 131.99C14.0891 130.632 13.8742 129.172 13.9908 127.719C14.1075 126.267 14.5527 124.859 15.293 123.603C16.0333 122.346 17.0494 121.274 18.2649 120.466C19.4804 119.658 20.8636 119.135 22.3106 118.938C23.7575 118.74 25.2306 118.873 26.6189 119.325C25.3624 120.458 24.4263 121.9 23.9045 123.508C23.3826 125.115 23.2934 126.831 23.6456 128.484C23.9978 130.137 24.7792 131.668 25.9114 132.925C27.0436 134.181 28.4869 135.119 30.0966 135.643C29.2827 136.377 28.3488 136.967 27.3356 137.387L27.335 137.386Z" fill="#052943"/>
<path d="M41.1462 132.483C41.5685 132.694 42.006 132.873 42.4551 133.019C41.1977 134.156 39.6611 134.941 38.0015 135.293L37.88 135.319C36.4311 135.609 34.9348 135.563 33.5062 135.186C32.0776 134.809 30.7548 134.109 29.6396 133.141C28.5244 132.174 27.6465 130.964 27.0736 129.604C26.5006 128.245 26.2478 126.772 26.3345 125.3C26.4213 123.828 26.8454 122.395 27.5742 121.112C28.3029 119.829 29.3169 118.73 30.5381 117.899C31.7593 117.069 33.1552 116.529 34.6183 116.321C36.0814 116.114 37.5727 116.244 38.9775 116.702C37.8063 117.752 36.9106 119.073 36.3689 120.548C35.8271 122.024 35.6557 123.609 35.8697 125.166C36.0836 126.723 36.6764 128.204 37.5962 129.479C38.516 130.755 39.7349 131.786 41.1462 132.483L41.1462 132.483Z" fill="#052943"/>
<path d="M57.7969 121.236C58.1943 123.101 58.0287 125.042 57.3209 126.813C56.6131 128.584 55.3949 130.106 53.8204 131.186C52.2458 132.266 50.3857 132.856 48.4752 132.881C46.5647 132.907 44.6896 132.366 43.087 131.327C41.4845 130.289 40.2264 128.8 39.472 127.048C38.7176 125.296 38.5006 123.361 38.8486 121.486C39.1966 119.611 40.0938 117.881 41.4269 116.515C42.76 115.149 44.4691 114.208 46.3379 113.812C47.5788 113.548 48.8596 113.531 50.107 113.762C51.3544 113.993 52.5441 114.466 53.6082 115.155C54.6723 115.845 55.5898 116.737 56.3085 117.78C57.0272 118.823 57.5329 119.998 57.7969 121.236Z" fill="#052943"/>
<path d="M53.7514 129.839C53.8428 130.266 53.8905 130.7 53.894 131.137C52.8302 131.88 51.6274 132.402 50.3574 132.671C49.0873 132.941 47.7759 132.953 46.5012 132.706C46.3264 132.306 46.1926 131.889 46.102 131.462C45.6293 129.244 46.362 127.129 47.787 126.172C47.1089 126.043 46.4964 125.684 46.0536 125.155C45.6107 124.627 45.3648 123.961 45.3576 123.272C45.3503 122.584 45.5822 121.913 46.0138 121.376C46.4455 120.838 47.0502 120.466 47.7255 120.322C48.4008 120.179 49.105 120.273 49.7185 120.589C50.3321 120.905 50.8172 121.423 51.0915 122.055C51.3658 122.688 51.4125 123.395 51.2235 124.058C51.0345 124.721 50.6216 125.298 50.0548 125.691C51.7474 125.986 53.2787 127.621 53.7514 129.839Z" fill="white"/>
<path d="M41.1462 132.484L41.1525 132.513C41.2337 133.049 41.2705 133.59 41.2625 134.132C40.2618 134.833 39.1433 135.035 37.8801 135.319L37.7586 135.345C36.4887 135.616 35.177 135.628 33.9024 135.38C33.8851 135.343 33.87 135.306 33.8573 135.267C33.7033 134.902 33.5848 134.524 33.5035 134.136C33.0307 131.918 33.7634 129.803 35.1885 128.846C34.5103 128.717 33.8977 128.358 33.4548 127.829C33.0119 127.301 32.766 126.636 32.7587 125.947C32.7515 125.258 32.9834 124.588 33.4151 124.05C33.8468 123.512 34.4517 123.14 35.127 122.997C35.3558 122.948 35.5898 122.926 35.8238 122.934C35.6368 124.876 36.0457 126.83 36.9962 128.535C37.9468 130.241 39.3941 131.618 41.1465 132.484L41.1462 132.484Z" fill="white"/>
<path d="M29.0267 135.222C29.1034 135.607 29.1434 135.997 29.1461 136.389C28.3815 136.924 27.5429 137.346 26.6567 137.64C26.582 137.665 26.5046 137.689 26.4296 137.712C26.3546 137.734 26.2771 137.758 26.1994 137.779C26.0731 137.815 25.9437 137.848 25.8136 137.877C25.787 137.885 25.7579 137.892 25.7308 137.897L25.6094 137.923C25.5397 137.938 25.47 137.953 25.3998 137.965L25.2183 137.997C25.1846 138.004 25.1513 138.009 25.1184 138.013C24.0022 138.193 22.8629 138.175 21.7532 137.958C21.7503 137.953 21.7484 137.948 21.7476 137.943C21.7322 137.911 21.719 137.879 21.7081 137.845C21.5541 137.481 21.4356 137.102 21.3543 136.714C20.8816 134.496 21.6143 132.381 23.0393 131.424C22.3611 131.295 21.7486 130.936 21.3056 130.407C20.8627 129.879 20.6168 129.214 20.6095 128.525C20.6023 127.836 20.8342 127.166 21.2659 126.628C21.6976 126.09 22.3025 125.718 22.9778 125.575C23.1399 125.54 23.3046 125.52 23.4702 125.513C23.2688 127.507 23.6959 129.514 24.6919 131.255C25.688 132.995 27.2034 134.382 29.0268 135.222L29.0267 135.222Z" fill="white"/>
<path d="M128.564 85.7804C128.564 85.9986 128.542 86.2163 128.498 86.4301C127.9 86.6831 127.258 86.8135 126.608 86.8135C125.959 86.8135 125.316 86.6831 124.718 86.4301C124.675 86.2163 124.653 85.9986 124.653 85.7804C124.653 84.6464 125.231 83.6879 126.028 83.3676C125.71 83.234 125.448 82.9947 125.287 82.6902C125.125 82.3857 125.074 82.0348 125.142 81.697C125.211 81.3593 125.394 81.0556 125.661 80.8373C125.928 80.6191 126.263 80.4999 126.608 80.4999C126.953 80.4999 127.288 80.6191 127.555 80.8373C127.822 81.0556 128.006 81.3593 128.074 81.697C128.142 82.0348 128.091 82.3857 127.93 82.6902C127.768 82.9947 127.506 83.234 127.188 83.3676C127.985 83.6879 128.564 84.6463 128.564 85.7804Z" fill="#052943"/>
<path d="M128.564 105.486C128.564 105.704 128.542 105.922 128.498 106.136C127.9 106.389 127.258 106.519 126.608 106.519C125.959 106.519 125.316 106.389 124.718 106.136C124.675 105.922 124.653 105.704 124.653 105.486C124.653 104.352 125.231 103.393 126.028 103.073C125.71 102.939 125.448 102.7 125.287 102.396C125.125 102.091 125.074 101.74 125.142 101.402C125.211 101.065 125.394 100.761 125.661 100.543C125.928 100.325 126.263 100.205 126.608 100.205C126.953 100.205 127.288 100.325 127.555 100.543C127.822 100.761 128.006 101.065 128.074 101.402C128.142 101.74 128.091 102.091 127.93 102.396C127.768 102.7 127.506 102.939 127.188 103.073C127.985 103.393 128.564 104.352 128.564 105.486Z" fill="#052943"/>
<path d="M128.564 124.799C128.564 125.018 128.542 125.235 128.498 125.449C127.9 125.702 127.258 125.832 126.608 125.832C125.959 125.832 125.316 125.702 124.718 125.449C124.675 125.235 124.653 125.018 124.653 124.799C124.653 123.665 125.231 122.707 126.028 122.387C125.71 122.253 125.448 122.014 125.287 121.709C125.125 121.405 125.074 121.054 125.142 120.716C125.211 120.378 125.394 120.075 125.661 119.856C125.928 119.638 126.263 119.519 126.608 119.519C126.953 119.519 127.288 119.638 127.555 119.856C127.822 120.075 128.006 120.378 128.074 120.716C128.142 121.054 128.091 121.405 127.93 121.709C127.768 122.014 127.506 122.253 127.188 122.387C127.985 122.707 128.564 123.665 128.564 124.799Z" fill="#052943"/>
<path d="M118.518 131.418C120.524 131.418 122.15 129.795 122.15 127.794C122.15 125.792 120.524 124.169 118.518 124.169C116.512 124.169 114.886 125.792 114.886 127.794C114.886 129.795 116.512 131.418 118.518 131.418Z" fill="#FFB8B8"/>
</g>
<defs>
<clipPath id="clip0_40_343">
<rect width="184" height="161" fill="white"/>
</clipPath>
</defs>
</svg>
