<?xml version="1.0" encoding="UTF-8" standalone="no"?>
<!DOCTYPE svg PUBLIC "-//W3C//DTD SVG 1.1//EN" "http://www.w3.org/Graphics/SVG/1.1/DTD/svg11.dtd">
<svg width="100%" height="100%" viewBox="0 0 750 500" version="1.1" xmlns="http://www.w3.org/2000/svg" xmlns:xlink="http://www.w3.org/1999/xlink" xml:space="preserve" xmlns:serif="http://www.serif.com/" style="fill-rule:evenodd;clip-rule:evenodd;stroke-linejoin:round;stroke-miterlimit:2;">
    <g transform="matrix(1,0,0,1,-22.7678,10.3379)">
        <g id="freepik--background-simple--inject-15">
            <g>
                <g transform="matrix(1.4316,0,0,1.4316,-134.014,-134.547)">
                    <path d="M343.33,213C312.05,220.58 294.72,212.05 266.88,204.72C239.04,197.39 208.22,190.72 182.51,203.66C152.06,219 139.85,257.8 144.35,291.6C148.72,324.4 185.07,353.6 213.97,369.71C235.8,381.87 261.53,384.5 286.48,386.04C354.19,390.22 406.13,390.32 468.75,364.22C531.37,338.12 585.82,284.49 597.45,217.65C602.36,189.4 598.85,158.31 581.14,135.77C558.37,106.77 515.69,98.31 480.63,109.67C445.57,121.03 417.87,149.08 399.35,180.94C386.94,202.29 366.91,205.72 343.35,213.01" style="fill:rgb(245,245,245);fill-rule:nonzero;"/>
                </g>
                <g transform="matrix(1.39933,-0.302289,0.302289,1.39933,-173.741,-49.6819)">
                    <rect x="235.41" y="120.83" width="56.7" height="77.59" style="fill:white;"/>
                </g>
                <g transform="matrix(1.4316,0,0,1.4316,-134.014,-134.547)">
                    <path d="M299.65,191.56L299.56,191.19C299.5,190.94 299.42,190.58 299.32,190.12C299.1,189.12 298.79,187.78 298.39,185.99C297.6,182.36 296.44,177.09 294.97,170.42C292.06,157.08 287.97,138.16 283.05,115.77L283.33,115.95L227.92,127.95L228.12,127.64C234.22,155.97 239.87,182.2 244.45,203.49L244.2,203.32L284.47,194.74L295.68,192.37L298.68,191.76L299.68,191.56C299.68,191.56 299.36,191.65 298.68,191.8L295.77,192.45L284.63,194.91L244.28,203.74L244.07,203.74L244.07,203.54C239.46,182.25 233.78,156.03 227.64,127.71L227.64,127.45L227.89,127.45L283.31,115.45L283.54,115.45L283.59,115.68C288.39,138.16 292.45,157.15 295.31,170.53C296.72,177.19 297.84,182.45 298.6,186.07C298.98,187.85 299.26,189.23 299.46,190.17L299.67,191.22C299.669,191.334 299.662,191.447 299.65,191.56Z" style="fill:rgb(38,50,56);fill-rule:nonzero;"/>
                </g>
                <g transform="matrix(1.4316,0,0,1.4316,-134.014,-134.547)">
                    <path d="M265,135.61C265,135.76 259,137.17 251.59,138.78C244.18,140.39 238.1,141.57 238.07,141.43C238.04,141.29 244.07,139.88 251.48,138.27C258.89,136.66 265,135.47 265,135.61Z" style="fill:rgb(38,50,56);fill-rule:nonzero;"/>
                </g>
                <g transform="matrix(1.4316,0,0,1.4316,-134.014,-134.547)">
                    <path d="M281,139.06C281,139.2 271.76,141.32 260.31,143.79C248.86,146.26 239.53,148.16 239.5,148.02C239.47,147.88 248.74,145.76 260.2,143.29C271.66,140.82 281,138.92 281,139.06Z" style="fill:rgb(38,50,56);fill-rule:nonzero;"/>
                </g>
                <g transform="matrix(1.4316,0,0,1.4316,-134.014,-134.547)">
                    <path d="M282.51,145.93C282.51,146.07 273.28,148.19 261.82,150.67C250.36,153.15 241.05,155 241,154.9C240.95,154.8 250.23,152.64 261.69,150.16C273.15,147.68 282.48,145.79 282.51,145.93Z" style="fill:rgb(38,50,56);fill-rule:nonzero;"/>
                </g>
                <g transform="matrix(1.4316,0,0,1.4316,-134.014,-134.547)">
                    <path d="M284,152.81C284,152.95 274.76,155.07 263.31,157.54C251.86,160.01 242.53,161.91 242.5,161.77C242.47,161.63 251.73,159.51 263.2,157.04C274.67,154.57 284,152.67 284,152.81Z" style="fill:rgb(38,50,56);fill-rule:nonzero;"/>
                </g>
                <g transform="matrix(1.4316,0,0,1.4316,-134.014,-134.547)">
                    <path d="M285.48,159.68C285.48,159.82 276.25,161.94 264.79,164.42C253.33,166.9 244,168.79 244,168.65C244,168.51 253.23,166.39 264.69,163.91C276.15,161.43 285.45,159.54 285.48,159.68Z" style="fill:rgb(38,50,56);fill-rule:nonzero;"/>
                </g>
                <g transform="matrix(1.4316,0,0,1.4316,-134.014,-134.547)">
                    <path d="M287,166.56C287,166.7 277.76,168.82 266.31,171.29C254.86,173.76 245.53,175.66 245.5,175.52C245.47,175.38 254.73,173.26 266.2,170.78C277.67,168.3 286.94,166.42 287,166.56Z" style="fill:rgb(38,50,56);fill-rule:nonzero;"/>
                </g>
                <g transform="matrix(1.4316,0,0,1.4316,-134.014,-134.547)">
                    <path d="M288.45,173.43C288.45,173.57 279.22,175.69 267.76,178.17C256.3,180.65 247,182.54 247,182.4C247,182.26 256.23,180.14 267.69,177.66C279.15,175.18 288.42,173.29 288.45,173.43Z" style="fill:rgb(38,50,56);fill-rule:nonzero;"/>
                </g>
                <g transform="matrix(1.4316,0,0,1.4316,-134.014,-134.547)">
                    <path d="M270.75,184.45C270.75,184.59 265.81,185.79 259.65,187.12C253.49,188.45 248.47,189.41 248.44,189.27C248.41,189.13 253.38,187.94 259.54,186.61C265.7,185.28 270.72,184.31 270.75,184.45Z" style="fill:rgb(38,50,56);fill-rule:nonzero;"/>
                </g>
                <g transform="matrix(1.4316,0,0,1.4316,-134.014,-134.547)">
                    <path d="M542.57,309.85L556.75,346.26L562.67,336.71L570.86,347.47L580.63,338.18L571.32,329.2L579.91,323.39L542.57,309.85Z" style="fill:rgb(97,129,247);fill-rule:nonzero;"/>
                </g>
                <g transform="matrix(1.4316,0,0,1.4316,-134.014,-134.547)">
                    <path d="M537.23,315.23C535.608,316.567 533.879,317.768 532.06,318.82C530.335,320.018 528.512,321.068 526.61,321.96C528.236,320.631 529.964,319.434 531.78,318.38C533.507,317.182 535.33,316.128 537.23,315.23Z" style="fill:rgb(38,50,56);fill-rule:nonzero;"/>
                </g>
                <g transform="matrix(1.4316,0,0,1.4316,-134.014,-134.547)">
                    <path d="M538.33,307.89C537.548,307.786 536.782,307.584 536.05,307.29C534.67,306.85 532.77,306.18 530.72,305.29C528.67,304.4 526.83,303.64 525.52,303.02C524.788,302.731 524.091,302.362 523.44,301.92C524.206,302.09 524.951,302.345 525.66,302.68L530.91,304.81L536.18,306.9C536.93,307.152 537.651,307.484 538.33,307.89Z" style="fill:rgb(38,50,56);fill-rule:nonzero;"/>
                </g>
                <g transform="matrix(1.4316,0,0,1.4316,-134.014,-134.547)">
                    <path d="M542.61,291.36C542.87,292.001 543.045,292.673 543.13,293.36C543.37,294.61 543.66,296.36 543.9,298.29C544.14,300.22 544.3,301.99 544.37,303.29C544.462,303.98 544.462,304.68 544.37,305.37C543.917,303.055 543.583,300.719 543.37,298.37C542.992,296.049 542.739,293.709 542.61,291.36Z" style="fill:rgb(38,50,56);fill-rule:nonzero;"/>
                </g>
                <g transform="matrix(1.4316,0,0,1.4316,-134.014,-134.547)">
                    <path d="M562.24,299.51C562.3,299.65 559.68,300.78 556.72,302.68C553.76,304.58 551.42,306.23 551.33,306.1C551.24,305.97 551.82,305.56 552.74,304.85C553.928,303.918 555.163,303.047 556.44,302.24C558.207,301.012 560.168,300.089 562.24,299.51Z" style="fill:rgb(38,50,56);fill-rule:nonzero;"/>
                </g>
                <g transform="matrix(1.4316,0,0,1.4316,-134.014,-134.547)">
                    <path d="M212.61,316.05C212.498,314.565 212.274,313.091 211.94,311.64C211.513,309.957 210.839,308.346 209.94,306.86C208.748,304.887 207.19,303.159 205.35,301.77C200.49,298.089 194.074,297.13 188.35,299.23C186.726,299.811 185.199,300.634 183.82,301.67C182.358,302.722 181.081,304.01 180.04,305.48C175.412,311.745 175.412,320.355 180.04,326.62C181.084,328.084 182.361,329.368 183.82,330.42C185.197,331.46 186.724,332.283 188.35,332.86C194.074,334.96 200.49,334.001 205.35,330.32C207.187,328.932 208.745,327.208 209.94,325.24C210.839,323.751 211.513,322.136 211.94,320.45C212.273,319.002 212.497,317.531 212.61,316.05C212.723,314.569 212.61,316.15 212.61,316.34L212.61,317.21C212.613,317.679 212.573,318.148 212.49,318.61C212.427,319.248 212.313,319.88 212.15,320.5C211.741,322.221 211.066,323.867 210.15,325.38C207.482,329.91 202.992,333.081 197.83,334.08C194.602,334.688 191.27,334.422 188.18,333.31C186.51,332.727 184.941,331.887 183.53,330.82C182.025,329.742 180.708,328.425 179.63,326.92C174.858,320.478 174.858,311.612 179.63,305.17C180.19,304.424 180.794,303.713 181.44,303.04C182.099,302.407 182.797,301.816 183.53,301.27C184.946,300.211 186.514,299.371 188.18,298.78C191.27,297.666 194.604,297.403 197.83,298.02C202.992,299.01 207.485,302.179 210.15,306.71C211.065,308.224 211.739,309.87 212.15,311.59C212.313,312.21 212.427,312.842 212.49,313.48C212.572,313.945 212.613,314.417 212.61,314.89L212.61,315.75C212.62,316 212.61,316.05 212.61,316.05Z" style="fill:rgb(38,50,56);fill-rule:nonzero;"/>
                </g>
                <g transform="matrix(1.4316,0,0,1.4316,-134.014,-134.547)">
                    <path d="M194.46,325.16C194.203,322.131 194.116,319.089 194.2,316.05C194.116,313.011 194.203,309.969 194.46,306.94C194.73,309.969 194.82,313.011 194.73,316.05C194.82,319.089 194.73,322.131 194.46,325.16Z" style="fill:rgb(38,50,56);fill-rule:nonzero;"/>
                </g>
                <g transform="matrix(1.4316,0,0,1.4316,-134.014,-134.547)">
                    <path d="M203.57,316.05C200.544,316.308 197.506,316.394 194.47,316.31C191.431,316.395 188.389,316.308 185.36,316.05C188.389,315.786 191.431,315.699 194.47,315.79C197.506,315.7 200.544,315.786 203.57,316.05Z" style="fill:rgb(38,50,56);fill-rule:nonzero;"/>
                </g>
                <g transform="matrix(1.4316,0,0,1.4316,-134.014,-134.547)">
                    <path d="M491,374.69C490.88,374.76 478.32,355.34 462.95,331.3C447.58,307.26 435.21,287.7 435.33,287.63C435.45,287.56 448,307 463.34,331C478.68,355 491.07,374.61 491,374.69Z" style="fill:rgb(38,50,56);fill-rule:nonzero;"/>
                </g>
                <g transform="matrix(1.4316,0,0,1.4316,-134.014,-134.547)">
                    <circle cx="496.41" cy="387.96" r="29.15" style="fill:white;"/>
                </g>
                <g transform="matrix(1.4316,0,0,1.4316,-134.014,-134.547)">
                    <path d="M467.26,388L467.26,387.53C467.26,387.22 467.26,386.73 467.31,386.14L467.31,385.14C467.31,384.79 467.41,384.36 467.47,383.92C467.589,382.908 467.78,381.905 468.04,380.92C468.693,378.166 469.765,375.528 471.22,373.1C475.488,365.809 482.704,360.705 491,359.11C492.226,358.881 493.465,358.734 494.71,358.67C495.34,358.67 495.98,358.58 496.62,358.59L498.57,358.69C499.241,358.709 499.91,358.779 500.57,358.9C501.22,359 501.89,359.08 502.57,359.21C505.261,359.821 507.865,360.768 510.32,362.03C510.94,362.37 511.54,362.76 512.16,363.12C512.778,363.484 513.37,363.892 513.93,364.34C516.336,366.059 518.438,368.168 520.15,370.58C521.985,373.029 523.407,375.762 524.36,378.67C526.38,384.691 526.38,391.209 524.36,397.23C523.401,400.142 521.98,402.88 520.15,405.34C519.262,406.536 518.297,407.671 517.26,408.74C516.213,409.759 515.097,410.704 513.92,411.57C513.36,412.018 512.768,412.426 512.15,412.79C511.53,413.16 510.93,413.55 510.31,413.88C509.074,414.528 507.794,415.09 506.48,415.56C505.196,416.025 503.883,416.406 502.55,416.7C501.9,416.84 501.23,416.91 500.55,417.02C499.89,417.141 499.221,417.211 498.55,417.23L496.6,417.32C495.96,417.32 495.32,417.27 494.69,417.24C493.441,417.18 492.198,417.033 490.97,416.8C482.714,415.212 475.524,410.154 471.24,402.92C469.788,400.49 468.716,397.853 468.06,395.1C467.801,394.114 467.611,393.112 467.49,392.1C467.43,391.65 467.36,391.25 467.33,390.87C467.3,390.49 467.33,390.16 467.33,389.87C467.33,389.28 467.33,388.82 467.28,388.48C467.23,388.14 467.28,388.01 467.28,388.01C467.28,388.01 467.28,388.17 467.33,388.48C467.38,388.79 467.38,389.27 467.42,389.86L467.49,390.86C467.49,391.23 467.61,391.64 467.67,392.08C467.809,393.093 468.016,394.095 468.29,395.08C468.97,397.802 470.059,400.405 471.52,402.8C475.8,409.913 482.922,414.869 491.08,416.41C492.289,416.632 493.512,416.772 494.74,416.83C495.37,416.83 495.99,416.91 496.63,416.9L498.54,416.8C499.188,416.78 499.833,416.71 500.47,416.59C501.12,416.48 501.77,416.41 502.42,416.27C503.726,415.975 505.012,415.597 506.27,415.14C507.562,414.672 508.822,414.117 510.04,413.48C510.65,413.15 511.24,412.76 511.84,412.4C512.452,412.043 513.036,411.642 513.59,411.2C514.744,410.348 515.837,409.416 516.86,408.41C517.883,407.361 518.832,406.241 519.7,405.06C521.499,402.634 522.894,399.932 523.83,397.06C525.809,391.146 525.809,384.744 523.83,378.83C522.894,375.958 521.499,373.256 519.7,370.83C518.836,369.649 517.89,368.53 516.87,367.48C515.842,366.48 514.749,365.548 513.6,364.69C513.046,364.248 512.462,363.847 511.85,363.49C511.25,363.13 510.66,362.75 510.05,362.41C508.834,361.772 507.574,361.22 506.28,360.76C505.023,360.295 503.737,359.914 502.43,359.62C501.78,359.49 501.13,359.41 500.48,359.31C499.843,359.187 499.198,359.113 498.55,359.09L496.64,358.99C496.01,358.99 495.38,359.05 494.75,359.07C493.525,359.123 492.305,359.263 491.1,359.49C482.932,361.011 475.799,365.972 471.53,373.1C470.067,375.494 468.978,378.097 468.3,380.82C468.024,381.804 467.817,382.807 467.68,383.82C467.62,384.26 467.54,384.66 467.5,385.04C467.46,385.42 467.45,385.75 467.43,386.04C467.43,386.63 467.36,387.04 467.34,387.43C467.32,387.82 467.26,388 467.26,388Z" style="fill:rgb(38,50,56);fill-rule:nonzero;"/>
                </g>
                <g transform="matrix(1.4316,0,0,1.4316,-134.014,-134.547)">
                    <path d="M488.46,377.25L484.47,400.05L496.41,398.41L508.35,400.05L503.54,377.25L488.46,377.25Z" style="fill:rgb(38,50,56);fill-rule:nonzero;"/>
                </g>
                <g transform="matrix(1.4316,0,0,1.4316,-134.014,-134.547)">
                    <path d="M501.45,377.55C501.36,377.55 501.12,376.73 500.45,375.55C500.092,374.85 499.607,374.223 499.02,373.7C498.664,373.419 498.27,373.19 497.85,373.02C497.39,372.862 496.907,372.781 496.42,372.78C495.47,372.734 494.526,372.959 493.7,373.43C493.055,373.869 492.54,374.473 492.21,375.18C491.61,376.4 491.41,377.25 491.32,377.23C491.35,376.462 491.541,375.709 491.88,375.02C492.194,374.216 492.736,373.52 493.44,373.02C494.337,372.462 495.385,372.193 496.44,372.25C496.986,372.254 497.527,372.352 498.04,372.54C498.514,372.729 498.954,372.996 499.34,373.33C499.958,373.908 500.451,374.605 500.79,375.38C501.153,376.052 501.378,376.79 501.45,377.55Z" style="fill:rgb(38,50,56);fill-rule:nonzero;"/>
                </g>
                <g transform="matrix(1.4316,0,0,1.4316,-134.014,-134.547)">
                    <path d="M380.09,376.64C379.94,376.64 379.83,356.57 379.83,331.81C379.83,307.05 379.94,286.98 380.09,286.98C380.24,286.98 380.35,307.04 380.35,331.81C380.35,356.58 380.23,376.64 380.09,376.64Z" style="fill:rgb(38,50,56);fill-rule:nonzero;"/>
                </g>
                <g transform="matrix(1.4316,0,0,1.4316,-134.014,-134.547)">
                    <circle cx="379.49" cy="388.61" r="29.15" style="fill:white;"/>
                </g>
                <g transform="matrix(1.4316,0,0,1.4316,-134.014,-134.547)">
                    <path d="M350.34,388.61L350.34,385.75C350.34,385.4 350.45,384.97 350.51,384.53C350.62,383.517 350.811,382.513 351.08,381.53C351.732,378.775 352.804,376.138 354.26,373.71C358.532,366.463 365.727,361.398 373.99,359.82C375.216,359.592 376.455,359.445 377.7,359.38C378.34,359.38 378.98,359.3 379.62,359.3L381.56,359.4C382.231,359.418 382.9,359.488 383.56,359.61C384.22,359.71 384.88,359.79 385.56,359.92C386.896,360.194 388.212,360.554 389.5,361C390.816,361.469 392.099,362.027 393.34,362.67C393.96,363.01 394.56,363.4 395.17,363.76C395.807,364.132 396.418,364.546 397,365C398.171,365.874 399.286,366.819 400.34,367.83C401.374,368.902 402.336,370.041 403.22,371.24C405.048,373.697 406.469,376.432 407.43,379.34C409.456,385.36 409.456,391.88 407.43,397.9C406.477,400.811 405.055,403.547 403.22,406C402.339,407.198 401.377,408.334 400.34,409.4C399.289,410.414 398.173,411.359 397,412.23C396.436,412.678 395.842,413.086 395.22,413.45C394.61,413.82 394.01,414.21 393.39,414.54C392.15,415.186 390.867,415.748 389.55,416.22C388.27,416.685 386.96,417.066 385.63,417.36C384.97,417.5 384.31,417.57 383.63,417.68C382.97,417.802 382.301,417.872 381.63,417.89L379.69,417.98C379.04,417.98 378.41,417.93 377.77,417.9C376.525,417.841 375.285,417.694 374.06,417.46C365.801,415.879 358.608,410.819 354.33,403.58C352.874,401.152 351.802,398.515 351.15,395.76C350.882,394.776 350.691,393.773 350.58,392.76C350.52,392.31 350.45,391.91 350.41,391.53C350.37,391.15 350.41,390.82 350.41,390.53L350.41,388.67C350.435,388.826 350.452,388.983 350.46,389.14C350.46,389.47 350.52,389.93 350.56,390.52C350.56,390.827 350.58,391.16 350.62,391.52C350.62,391.89 350.74,392.3 350.81,392.74C350.945,393.753 351.149,394.755 351.42,395.74C352.108,398.461 353.2,401.063 354.66,403.46C358.939,410.531 366.031,415.457 374.15,417C375.359,417.222 376.582,417.362 377.81,417.42C378.43,417.42 379.06,417.5 379.69,417.49L381.61,417.39C382.258,417.369 382.903,417.299 383.54,417.18C384.18,417.07 384.84,417 385.48,416.86C386.79,416.569 388.08,416.192 389.34,415.73C390.632,415.262 391.892,414.707 393.11,414.07C393.72,413.74 394.3,413.35 394.91,413C395.516,412.636 396.098,412.232 396.65,411.79C397.805,410.939 398.901,410.01 399.93,409.01C400.947,407.954 401.893,406.832 402.76,405.65C404.561,403.225 405.956,400.523 406.89,397.65C408.876,391.737 408.876,385.333 406.89,379.42C405.954,376.548 404.559,373.846 402.76,371.42C401.89,370.243 400.945,369.124 399.93,368.07C398.898,367.07 397.803,366.138 396.65,365.28C396.1,364.838 395.518,364.437 394.91,364.08C394.3,363.72 393.72,363.34 393.11,363.01C391.896,362.364 390.636,361.81 389.34,361.35C388.08,360.885 386.79,360.504 385.48,360.21C384.84,360.08 384.18,360 383.54,359.9C382.904,359.776 382.258,359.706 381.61,359.69L379.7,359.59C379.06,359.59 378.43,359.64 377.81,359.66C376.582,359.713 375.359,359.853 374.15,360.08C365.992,361.621 358.87,366.577 354.59,373.69C353.129,376.086 352.037,378.689 351.35,381.41C351.077,382.395 350.873,383.397 350.74,384.41C350.67,384.85 350.59,385.25 350.55,385.63C350.51,386.01 350.55,386.34 350.49,386.63C350.49,387.22 350.42,387.68 350.39,388.02C350.387,388.218 350.37,388.415 350.34,388.61Z" style="fill:rgb(38,50,56);fill-rule:nonzero;"/>
                </g>
                <g transform="matrix(1.4316,0,0,1.4316,-134.014,-134.547)">
                    <path d="M379.49,375.55L366.85,387.04L366.85,401.61L376.69,401.61L376.69,392.88L382.96,392.88L382.96,401.61L392.14,401.61L392.14,387.04L379.49,375.55Z" style="fill:rgb(38,50,56);fill-rule:nonzero;"/>
                </g>
                <g transform="matrix(1.4316,0,0,1.4316,-134.014,-134.547)">
                    <path d="M267.25,375.7C267.13,375.63 279.68,355.78 295.25,331.39C310.82,307 323.6,287.27 323.72,287.39C323.84,287.51 311.29,307.3 295.72,331.71C280.15,356.12 267.37,375.78 267.25,375.7Z" style="fill:rgb(38,50,56);fill-rule:nonzero;"/>
                </g>
                <g transform="matrix(1.4316,0,0,1.4316,-134.014,-134.547)">
                    <circle cx="262.53" cy="388.24" r="29.15" style="fill:white;"/>
                </g>
                <g transform="matrix(1.4316,0,0,1.4316,-134.014,-134.547)">
                    <path d="M291.68,388.24C291.655,388.084 291.638,387.927 291.63,387.77C291.63,387.43 291.57,386.97 291.53,386.38C291.53,386.08 291.53,385.74 291.47,385.38C291.41,385.02 291.35,384.6 291.28,384.16C291.152,383.146 290.948,382.143 290.67,381.16C289.988,378.437 288.896,375.834 287.43,373.44C283.15,366.327 276.028,361.371 267.87,359.83C266.661,359.603 265.438,359.463 264.21,359.41C263.59,359.41 262.96,359.33 262.33,359.34L260.41,359.44C259.762,359.456 259.116,359.526 258.48,359.65C257.84,359.75 257.18,359.83 256.54,359.96C255.23,360.254 253.94,360.635 252.68,361.1C251.386,361.563 250.126,362.118 248.91,362.76C248.3,363.09 247.72,363.47 247.11,363.83C246.503,364.19 245.922,364.591 245.37,365.03C244.219,365.89 243.124,366.822 242.09,367.82C241.075,368.874 240.13,369.993 239.26,371.17C237.461,373.596 236.066,376.298 235.13,379.17C233.144,385.083 233.144,391.487 235.13,397.4C236.064,400.273 237.459,402.975 239.26,405.4C240.127,406.582 241.073,407.704 242.09,408.76C243.119,409.76 244.215,410.689 245.37,411.54C245.92,411.985 246.502,412.389 247.11,412.75C247.72,413.1 248.3,413.49 248.91,413.82C250.13,414.454 251.389,415.008 252.68,415.48C253.939,415.946 255.229,416.324 256.54,416.61C257.18,416.75 257.84,416.82 258.48,416.93C259.117,417.049 259.762,417.119 260.41,417.14L262.33,417.24C262.96,417.24 263.59,417.24 264.21,417.17C265.438,417.113 266.661,416.973 267.87,416.75C276.031,415.218 283.157,410.26 287.43,403.14C288.894,400.745 289.986,398.142 290.67,395.42C290.946,394.436 291.15,393.434 291.28,392.42C291.35,391.98 291.43,391.57 291.47,391.2L291.53,390.2C291.53,389.61 291.61,389.2 291.63,388.82C291.638,388.663 291.655,388.506 291.68,388.35C291.705,388.194 291.68,388.51 291.68,388.82L291.68,391.21C291.68,391.56 291.57,392 291.51,392.44C291.398,393.452 291.211,394.455 290.95,395.44C290.294,398.195 289.218,400.833 287.76,403.26C283.462,410.484 276.26,415.521 268,417.08C266.775,417.314 265.535,417.461 264.29,417.52C263.66,417.52 263.02,417.61 262.37,417.6L260.43,417.51C259.759,417.492 259.09,417.422 258.43,417.3C257.77,417.19 257.11,417.12 256.43,416.98C255.1,416.686 253.79,416.305 252.51,415.84C251.193,415.368 249.91,414.806 248.67,414.16C248.05,413.83 247.45,413.44 246.84,413.07C246.218,412.706 245.624,412.298 245.06,411.85C243.887,410.979 242.771,410.034 241.72,409.02C240.683,407.954 239.721,406.818 238.84,405.62C237.012,403.163 235.591,400.428 234.63,397.52C232.604,391.5 232.604,384.98 234.63,378.96C235.591,376.052 237.012,373.317 238.84,370.86C239.727,369.661 240.692,368.522 241.73,367.45C242.778,366.437 243.891,365.491 245.06,364.62C245.626,364.175 246.221,363.767 246.84,363.4C247.46,363.04 248.05,362.65 248.67,362.31C249.911,361.667 251.194,361.109 252.51,360.64C253.789,360.17 255.099,359.789 256.43,359.5C257.09,359.36 257.75,359.28 258.43,359.18C259.09,359.058 259.759,358.988 260.43,358.97L262.37,358.87C263.02,358.87 263.65,358.93 264.29,358.95C265.535,359.014 266.774,359.161 268,359.39C276.263,360.968 283.458,366.033 287.73,373.28C289.188,375.707 290.264,378.345 290.92,381.1C291.181,382.085 291.369,383.087 291.48,384.1C291.54,384.54 291.62,384.95 291.65,385.32C291.68,385.69 291.65,386.04 291.65,386.32L291.65,387.71C291.65,388.05 291.68,388.24 291.68,388.24Z" style="fill:rgb(38,50,56);fill-rule:nonzero;"/>
                </g>
                <g transform="matrix(1.4316,0,0,1.4316,-134.014,-134.547)">
                    <rect x="250.92" y="373.06" width="22.89" height="30.35" style="fill:rgb(38,50,56);"/>
                </g>
                <g transform="matrix(1.4316,0,0,1.4316,-134.014,-134.547)">
                    <path d="M263.47,377.91C260.979,378.257 258.451,378.257 255.96,377.91C258.451,377.563 260.979,377.563 263.47,377.91Z" style="fill:rgb(69,90,100);fill-rule:nonzero;"/>
                </g>
                <g transform="matrix(1.4316,0,0,1.4316,-134.014,-134.547)">
                    <path d="M270.1,382.18C267.602,382.437 265.09,382.524 262.58,382.44C260.074,382.524 257.565,382.437 255.07,382.18C257.565,381.923 260.074,381.836 262.58,381.92C265.09,381.836 267.602,381.923 270.1,382.18Z" style="fill:rgb(69,90,100);fill-rule:nonzero;"/>
                </g>
                <g transform="matrix(1.4316,0,0,1.4316,-134.014,-134.547)">
                    <path d="M270.1,384.78C267.602,385.037 265.09,385.124 262.58,385.04C260.074,385.124 257.565,385.037 255.07,384.78C257.564,384.51 260.073,384.42 262.58,384.51C265.09,384.42 267.603,384.51 270.1,384.78Z" style="fill:rgb(69,90,100);fill-rule:nonzero;"/>
                </g>
                <g transform="matrix(1.4316,0,0,1.4316,-134.014,-134.547)">
                    <path d="M270.1,387.37C267.602,387.627 265.09,387.714 262.58,387.63C260.074,387.714 257.565,387.627 255.07,387.37C257.565,387.113 260.074,387.026 262.58,387.11C265.09,387.026 267.602,387.113 270.1,387.37Z" style="fill:rgb(69,90,100);fill-rule:nonzero;"/>
                </g>
                <g transform="matrix(1.4316,0,0,1.4316,-134.014,-134.547)">
                    <path d="M270.1,390C267.602,390.257 265.09,390.344 262.58,390.26C260.074,390.344 257.565,390.257 255.07,390C257.564,389.73 260.073,389.64 262.58,389.73C265.09,389.64 267.603,389.73 270.1,390Z" style="fill:rgb(69,90,100);fill-rule:nonzero;"/>
                </g>
                <g transform="matrix(1.4316,0,0,1.4316,-134.014,-134.547)">
                    <path d="M270.1,392.56C267.602,392.817 265.09,392.904 262.58,392.82C260.074,392.904 257.565,392.817 255.07,392.56C257.565,392.303 260.074,392.216 262.58,392.3C265.09,392.216 267.602,392.303 270.1,392.56Z" style="fill:rgb(69,90,100);fill-rule:nonzero;"/>
                </g>
                <g transform="matrix(1.4316,0,0,1.4316,-134.014,-134.547)">
                    <path d="M270.1,395.15C267.603,395.42 265.09,395.51 262.58,395.42C260.073,395.51 257.564,395.42 255.07,395.15C257.565,394.893 260.074,394.806 262.58,394.89C265.09,394.806 267.602,394.893 270.1,395.15Z" style="fill:rgb(69,90,100);fill-rule:nonzero;"/>
                </g>
                <g transform="matrix(1.4316,0,0,1.4316,-134.014,-134.547)">
                    <path d="M270.1,397.75C267.602,398.007 265.09,398.094 262.58,398.01C260.074,398.094 257.565,398.007 255.07,397.75C257.565,397.493 260.074,397.406 262.58,397.49C265.09,397.406 267.602,397.493 270.1,397.75Z" style="fill:rgb(69,90,100);fill-rule:nonzero;"/>
                </g>
                <g transform="matrix(1.4316,0,0,1.4316,-134.014,-134.547)">
                    <path d="M537.97,254.518C537.97,245.346 530.524,237.9 521.352,237.9L248.938,237.9C239.766,237.9 232.32,245.346 232.32,254.518L232.32,271.472C232.32,280.644 239.766,288.09 248.938,288.09L521.352,288.09C530.524,288.09 537.97,280.644 537.97,271.472L537.97,254.518Z" style="fill:white;"/>
                </g>
                <g transform="matrix(1.4316,0,0,1.4316,-134.014,-134.547)">
                    <path d="M470.25,237.45L470.25,288.09L513,288.09C526.892,288.09 538.325,276.662 538.33,262.77L538.33,262.77C538.33,248.88 526.9,237.45 513.01,237.45C513.007,237.45 513.003,237.45 513,237.45L470.25,237.45Z" style="fill:rgb(97,129,247);fill-rule:nonzero;"/>
                </g>
                <g transform="matrix(1.4316,0,0,1.4316,-134.014,-134.547)">
                    <path d="M510,261.36C509.905,260.493 509.762,259.631 509.57,258.78C508.951,256.475 507.578,254.443 505.67,253.01C502.83,250.869 499.086,250.318 495.75,251.55C494.797,251.893 493.903,252.383 493.1,253C492.255,253.623 491.51,254.372 490.89,255.22C488.203,258.882 488.203,263.898 490.89,267.56C491.502,268.415 492.248,269.165 493.1,269.78C493.902,270.389 494.792,270.871 495.74,271.21C496.894,271.628 498.113,271.842 499.341,271.842C504.114,271.842 508.324,268.611 509.56,264C509.752,263.146 509.896,262.281 509.99,261.41C510.051,262.297 509.97,263.188 509.75,264.05C509.189,266.435 507.822,268.555 505.88,270.05C502.955,272.319 499.06,272.931 495.58,271.67C494.582,271.325 493.643,270.826 492.8,270.19C491.909,269.544 491.126,268.761 490.48,267.87C487.647,264.035 487.647,258.765 490.48,254.93C491.764,253.185 493.54,251.861 495.58,251.13C497.416,250.474 499.395,250.322 501.31,250.69C505.459,251.489 508.771,254.659 509.75,258.77C509.969,259.615 510.053,260.489 510,261.36Z" style="fill:white;fill-rule:nonzero;"/>
                </g>
                <g transform="matrix(1.4316,0,0,1.4316,-134.014,-134.547)">
                    <path d="M519.92,276.32C517.778,275.096 515.72,273.729 513.76,272.23C511.703,270.862 509.745,269.352 507.9,267.71C510.045,268.93 512.103,270.297 514.06,271.8C516.117,273.168 518.075,274.678 519.92,276.32Z" style="fill:white;fill-rule:nonzero;"/>
                </g>
                <g transform="matrix(1.4316,0,0,1.4316,-134.014,-134.547)">
                    <rect x="261.38" y="258.29" width="186.85" height="10.74" style="fill:rgb(235,235,235);"/>
                </g>
                <g transform="matrix(1.4316,0,0,1.4316,-134.014,-134.547)">
                    <path d="M514.18,288.09C514.18,288.09 514.77,288.09 515.91,287.98C516.619,287.938 517.324,287.847 518.02,287.71C518.99,287.558 519.949,287.341 520.89,287.06C523.522,286.26 525.998,285.016 528.21,283.38L529.21,282.64C529.53,282.36 529.84,282.06 530.16,281.77C530.835,281.166 531.47,280.518 532.06,279.83C532.71,279.15 533.22,278.32 533.84,277.53L534.62,276.24L535.02,275.57L535.36,274.86C536.363,272.866 537.07,270.737 537.46,268.54C537.54,267.96 537.63,267.37 537.72,266.78C537.81,266.19 537.79,265.57 537.82,264.96L537.82,261.18C537.525,248.696 527.391,238.487 514.91,238.1C508.09,238.04 500.85,238.1 493.27,238.1L256.12,238.18C250.373,238.202 244.826,240.314 240.52,244.12C236.259,247.871 233.51,253.05 232.79,258.68C232.693,259.369 232.636,260.064 232.62,260.76C232.62,261.45 232.57,262.15 232.62,262.85C232.603,264.242 232.656,265.634 232.78,267.02C233.085,269.769 233.888,272.439 235.15,274.9C237.633,279.803 241.746,283.694 246.78,285.9C249.257,286.956 251.894,287.589 254.58,287.77C255.91,287.86 257.26,287.85 258.58,287.85L309.34,287.85L415.96,287.91L487.83,287.99L507.38,288.04L514.19,288.04L507.38,288.04L487.83,288.09L415.96,288.17L309.34,288.23L258.57,288.23C257.22,288.23 255.88,288.23 254.51,288.15C246.031,287.617 238.451,282.598 234.65,275C233.361,272.486 232.541,269.758 232.23,266.95C232.099,265.544 232.042,264.132 232.06,262.72C232.06,262.02 232.06,261.32 232.11,260.61C232.121,259.897 232.178,259.186 232.28,258.48C233.011,252.727 235.818,247.433 240.17,243.6C244.587,239.7 250.278,237.541 256.17,237.53L493.32,237.61C500.91,237.61 508.13,237.61 514.97,237.66C527.606,238.064 537.852,248.42 538.12,261.06L538.12,264.86C538.12,265.48 538.05,266.09 538.01,266.69C537.97,267.29 537.83,267.89 537.74,268.47C537.342,270.687 536.621,272.833 535.6,274.84L535.26,275.56L534.85,276.22C534.58,276.67 534.32,277.1 534.05,277.53C533.489,278.327 532.889,279.094 532.25,279.83C531.662,280.526 531.024,281.178 530.34,281.78C530.01,282.08 529.69,282.38 529.34,282.65L528.34,283.4C526.109,285.033 523.612,286.268 520.96,287.05C520.012,287.326 519.047,287.536 518.07,287.68C517.37,287.81 516.661,287.89 515.95,287.92C514.77,288.08 514.18,288.09 514.18,288.09Z" style="fill:rgb(38,50,56);fill-rule:nonzero;"/>
                </g>
                <g transform="matrix(1.4316,0,0,1.4316,-134.014,-134.547)">
                    <path d="M381.75,256.89C380.84,255.83 380.75,254.89 382.8,254.75C387.31,254.34 390.63,252.37 391.16,251.23C391.69,250.09 390.25,248.98 389.03,249.66C387.629,250.268 386.152,250.685 384.64,250.9C383.425,251.106 382.185,251.106 380.97,250.9C379.92,250.74 378.97,250.56 378.17,250.39C378.17,250.39 373.4,249.39 371.34,247.75L361.24,258.54L365.98,263.89C367.421,265.917 369.818,267.055 372.3,266.89C376.36,266.49 381.83,263.58 381.83,263.58C382.57,262.44 389.11,266.48 391.22,267.99C393.33,269.5 394.88,269.12 394.8,267.67C394.75,266.67 388.41,261.89 386.29,260.44C384.65,259.416 383.128,258.216 381.75,256.86" style="fill:rgb(255,190,157);fill-rule:nonzero;"/>
                </g>
                <g transform="matrix(1.4316,0,0,1.4316,-134.014,-134.547)">
                    <path d="M375.82,266.26C375.82,266.33 375.53,266.45 375,266.44C373.61,266.351 372.402,265.434 371.94,264.12C371.78,263.63 371.83,263.3 371.89,263.29C372.276,264.049 372.802,264.727 373.44,265.29C374.163,265.765 374.971,266.095 375.82,266.26Z" style="fill:rgb(235,153,110);fill-rule:nonzero;"/>
                </g>
                <g transform="matrix(1.4316,0,0,1.4316,-134.014,-134.547)">
                    <path d="M379.82,264.69C379.82,264.75 379.53,264.86 379.03,264.83C377.705,264.7 376.569,263.813 376.12,262.56C375.97,262.09 376,261.78 376.06,261.77C376.12,261.76 376.48,262.88 377.57,263.71C378.264,264.152 379.024,264.483 379.82,264.69Z" style="fill:rgb(235,153,110);fill-rule:nonzero;"/>
                </g>
                <g transform="matrix(1.4316,0,0,1.4316,-134.014,-134.547)">
                    <path d="M390.71,152.43C391.13,161.29 401.94,173.43 409.98,175.43C414.2,176.43 419.06,175.98 422.41,178.82C428.16,183.69 424.8,193.82 428.67,200.32C431.05,204.32 435.78,206.32 438.46,210.11C442.91,216.45 439.92,226.03 433.85,230.75C427.78,235.47 419.68,236.37 412.07,236.17C395.32,235.74 378.17,230.42 366.07,218.55C360.38,212.97 338.13,195.76 345.89,154.95" style="fill:rgb(38,50,56);fill-rule:nonzero;"/>
                </g>
                <g transform="matrix(1.4316,0,0,1.4316,-134.014,-134.547)">
                    <path d="M451.15,215.83L387.48,196.93C384.513,195.633 381.4,194.696 378.21,194.14L356.71,194.28C353.871,194.29 351.064,194.878 348.46,196.01L290.51,215.26C286.22,216.62 283.26,221.02 283.26,226.03C283.26,232.2 287.71,237.21 293.2,237.21L320,237.21L319.89,237.6L412.97,237.95L448.5,238.02C453.99,238.02 458.44,232.97 458.44,226.73C458.4,221.65 455.44,217.2 451.15,215.83Z" style="fill:rgb(97,129,247);fill-rule:nonzero;"/>
                </g>
                <g transform="matrix(1.4316,0,0,1.4316,-134.014,-134.547)">
                    <path d="M438.39,222.72C438.197,222.74 438.003,222.74 437.81,222.72L436.17,222.53C434.75,222.35 432.69,222.12 430.17,221.88C423.523,221.239 416.847,220.958 410.17,221.04C403.504,221.138 396.848,221.592 390.23,222.4C387.69,222.71 385.63,222.99 384.23,223.21L382.59,223.44C382.402,223.475 382.211,223.492 382.02,223.49C382.195,223.413 382.38,223.363 382.57,223.34L384.19,223.01C385.6,222.73 387.65,222.39 390.19,222.01C396.819,221.096 403.499,220.591 410.19,220.5C416.871,220.417 423.551,220.751 430.19,221.5C432.74,221.79 434.8,222.08 436.19,222.32L437.82,222.6C438.015,222.613 438.207,222.653 438.39,222.72Z" style="fill:rgb(38,50,56);fill-rule:nonzero;"/>
                </g>
                <g transform="matrix(1.4316,0,0,1.4316,-134.014,-134.547)">
                    <g opacity="0.6">
                        <path d="M423.45,207.25C423.402,207.329 423.341,207.4 423.27,207.46L422.71,208.05C422.21,208.56 421.47,209.32 420.46,210.24C419.241,211.362 417.948,212.401 416.59,213.35C414.787,214.636 412.774,215.597 410.64,216.19C408.023,216.839 405.279,216.784 402.69,216.03C399.763,215.124 396.951,213.882 394.31,212.33C391.437,210.613 388.398,209.19 385.24,208.08C381.845,206.915 378.128,207.105 374.87,208.61C371.52,210.12 368.67,212.42 365.56,214.08C364.79,214.51 363.97,214.84 363.18,215.2C362.378,215.512 361.56,215.782 360.73,216.01C359.131,216.466 357.489,216.751 355.83,216.86C350.048,217.28 344.294,215.697 339.54,212.38C337.794,211.047 336.15,209.586 334.62,208.01C333.461,206.845 332.184,205.803 330.81,204.9C329.623,204.152 328.296,203.655 326.91,203.44C327.276,203.446 327.641,203.486 328,203.56C329.031,203.78 330.018,204.173 330.92,204.72C332.324,205.608 333.631,206.64 334.82,207.8C336.358,209.344 338.006,210.774 339.75,212.08C344.452,215.301 350.117,216.818 355.8,216.38C357.425,216.269 359.034,215.987 360.6,215.54C361.41,215.312 362.208,215.042 362.99,214.73C363.76,214.38 364.56,214.06 365.31,213.63C368.38,212 371.22,209.69 374.66,208.13C378.034,206.582 381.877,206.389 385.39,207.59C388.578,208.718 391.643,210.165 394.54,211.91C397.144,213.454 399.915,214.695 402.8,215.61C405.318,216.367 407.993,216.443 410.55,215.83C412.651,215.266 414.64,214.346 416.43,213.11C417.791,212.197 419.091,211.194 420.32,210.11C421.32,209.22 422.11,208.49 422.64,208.01L423.23,207.45C423.37,207.3 423.44,207.24 423.45,207.25Z" style="fill:white;fill-rule:nonzero;"/>
                    </g>
                </g>
                <g transform="matrix(1.4316,0,0,1.4316,-134.014,-134.547)">
                    <g opacity="0.2">
                        <path d="M324.51,222.59L364.76,230.18L360.11,237.75L358.88,237.77L324.51,222.59Z" style="fill-rule:nonzero;"/>
                    </g>
                </g>
                <g transform="matrix(1.4316,0,0,1.4316,-134.014,-134.547)">
                    <g opacity="0.6">
                        <path d="M446.34,214.64C446.362,214.843 446.362,215.047 446.34,215.25C446.318,215.84 446.258,216.428 446.16,217.01C444.84,224.538 438.109,230.004 430.47,229.75C428.433,229.623 426.419,229.253 424.47,228.65C422.47,228.08 420.52,227.45 418.61,227.07C416.786,226.663 414.906,226.565 413.05,226.78C407.69,227.423 402.895,230.444 400,235L399.48,235.87C399.353,236.123 399.243,236.343 399.15,236.53C399.068,236.721 398.964,236.903 398.84,237.07C398.895,236.872 398.965,236.678 399.05,236.49C399.14,236.29 399.23,236.06 399.34,235.8L399.83,234.9C400.914,233.002 402.361,231.337 404.09,230C406.665,227.975 409.748,226.695 413,226.3C414.908,226.073 416.841,226.164 418.72,226.57C420.67,226.95 422.62,227.57 424.63,228.15C426.55,228.745 428.534,229.111 430.54,229.24C435.65,229.408 440.517,226.997 443.48,222.83C444.704,221.077 445.562,219.093 446,217C446.29,215.49 446.28,214.63 446.34,214.64Z" style="fill:white;fill-rule:nonzero;"/>
                    </g>
                </g>
                <g transform="matrix(1.4316,0,0,1.4316,-134.014,-134.547)">
                    <path d="M290.56,235.92C290.56,235.92 363.32,268 363,267.29C362.68,266.58 374.55,245.51 374.55,245.51L315.6,216.37L290.56,235.92Z" style="fill:rgb(97,129,247);fill-rule:nonzero;"/>
                </g>
                <g transform="matrix(1.4316,0,0,1.4316,-134.014,-134.547)">
                    <path d="M324,220.53C324.515,220.702 325.017,220.912 325.5,221.16L329.5,223.05C332.88,224.66 337.5,226.92 342.63,229.45C347.76,231.98 352.36,234.29 355.69,235.99L359.62,237.99C360.112,238.22 360.583,238.491 361.03,238.8C360.512,238.639 360.01,238.431 359.53,238.18L355.53,236.29C352.16,234.68 347.53,232.42 342.4,229.89C337.27,227.36 332.67,225.05 329.34,223.35L325.41,221.35C324.92,221.113 324.448,220.839 324,220.53Z" style="fill:rgb(38,50,56);fill-rule:nonzero;"/>
                </g>
                <g transform="matrix(1.4316,0,0,1.4316,-134.014,-134.547)">
                    <g opacity="0.6">
                        <path d="M339.94,230.27C339.846,231.025 339.616,231.757 339.26,232.43C338.294,234.288 336.778,235.804 334.92,236.77C333.671,237.459 332.321,237.945 330.92,238.21C329.29,238.461 327.63,238.461 326,238.21C322.303,237.57 318.725,236.369 315.39,234.65C312.069,232.968 308.588,231.622 305,230.63C303.444,230.239 301.844,230.054 300.24,230.08C298.841,230.118 297.453,230.353 296.12,230.78C294.169,231.358 292.412,232.458 291.04,233.96C290.572,234.536 290.135,235.137 289.73,235.76C290.004,235.055 290.396,234.403 290.89,233.83C292.239,232.233 294.015,231.054 296.01,230.43C297.369,229.969 298.787,229.707 300.22,229.65C301.866,229.602 303.511,229.777 305.11,230.17C308.719,231.156 312.214,232.517 315.54,234.23C318.833,235.924 322.357,237.124 326,237.79C327.584,238.035 329.196,238.035 330.78,237.79C332.155,237.552 333.485,237.1 334.72,236.45C336.537,235.542 338.045,234.115 339.05,232.35C339.393,231.678 339.691,230.983 339.94,230.27Z" style="fill:white;fill-rule:nonzero;"/>
                    </g>
                </g>
                <g transform="matrix(1.4316,0,0,1.4316,-134.014,-134.547)">
                    <g opacity="0.6">
                        <path d="M370.83,252.28C370.83,252.37 369.22,252.11 366.62,252.06C365.1,252.045 363.58,252.125 362.07,252.3C360.223,252.525 358.394,252.886 356.6,253.38C354.815,253.9 353.071,254.548 351.38,255.32C350.003,255.967 348.667,256.699 347.38,257.51C345.19,258.91 343.97,259.98 343.91,259.9C344.145,259.6 344.417,259.331 344.72,259.1C345.499,258.418 346.32,257.786 347.18,257.21C348.453,256.336 349.79,255.561 351.18,254.89C354.581,253.245 358.242,252.206 362,251.82C363.535,251.665 365.079,251.625 366.62,251.7C367.656,251.735 368.689,251.842 369.71,252.02C370.093,252.056 370.47,252.143 370.83,252.28Z" style="fill:white;fill-rule:nonzero;"/>
                    </g>
                </g>
                <g transform="matrix(1.4316,0,0,1.4316,-134.014,-134.547)">
                    <g opacity="0.2">
                        <path d="M379.8,194C378.6,197.36 380.4,201 382.16,204.1C383.281,206.326 384.701,208.388 386.38,210.23C388.08,212.091 390.47,213.176 392.99,213.23C396.26,213.12 399.18,210.71 402.45,210.9C404.67,211.03 406.61,212.34 408.45,213.58C411.571,215.845 414.956,217.722 418.53,219.17C422.136,220.613 426.112,220.862 429.87,219.88C433.655,218.832 436.633,215.884 437.72,212.11" style="fill-rule:nonzero;"/>
                    </g>
                </g>
                <g transform="matrix(1.4316,0,0,1.4316,-134.014,-134.547)">
                    <path d="M380.07,193.08C380.24,189.16 380.45,185.62 380.45,185.62C380.45,185.62 389.21,184.51 389.58,175.62C389.95,166.73 389.07,146.11 389.07,146.11L373,138.33L355.67,152.33L358.38,193.33C358.774,199.206 363.867,203.753 369.75,203.48C375.331,203.202 379.835,198.663 380.07,193.08Z" style="fill:rgb(255,190,157);fill-rule:nonzero;"/>
                </g>
                <g transform="matrix(1.4316,0,0,1.4316,-134.014,-134.547)">
                    <path d="M387.56,162.22C387.554,162.825 387.055,163.32 386.45,163.32C385.841,163.32 385.34,162.819 385.34,162.21C385.34,161.608 385.829,161.111 386.43,161.1C387.046,161.1 387.555,161.604 387.56,162.22Z" style="fill:rgb(38,50,56);fill-rule:nonzero;"/>
                </g>
                <g transform="matrix(1.4316,0,0,1.4316,-134.014,-134.547)">
                    <path d="M388.64,159.84C388.5,159.99 387.64,159.28 386.47,159.24C385.3,159.2 384.38,159.8 384.25,159.64C384.12,159.48 384.33,159.29 384.72,159.01C385.238,158.642 385.865,158.459 386.5,158.49C387.133,158.525 387.739,158.76 388.23,159.16C388.59,159.48 388.71,159.77 388.64,159.84Z" style="fill:rgb(38,50,56);fill-rule:nonzero;"/>
                </g>
                <g transform="matrix(1.4316,0,0,1.4316,-134.014,-134.547)">
                    <path d="M374.28,162.22C374.28,162.834 373.774,163.34 373.16,163.34C372.546,163.34 372.04,162.834 372.04,162.22C372.04,161.613 372.533,161.111 373.14,161.1C373.143,161.1 373.147,161.1 373.15,161.1C373.766,161.1 374.275,161.604 374.28,162.22Z" style="fill:rgb(38,50,56);fill-rule:nonzero;"/>
                </g>
                <g transform="matrix(1.4316,0,0,1.4316,-134.014,-134.547)">
                    <path d="M375.36,160.07C375.22,160.22 374.36,159.51 373.18,159.47C372,159.43 371.09,160.03 370.97,159.87C370.85,159.71 371.05,159.52 371.44,159.24C371.955,158.874 372.579,158.691 373.21,158.72C373.846,158.748 374.455,158.988 374.94,159.4C375.31,159.71 375.43,160 375.36,160.07Z" style="fill:rgb(38,50,56);fill-rule:nonzero;"/>
                </g>
                <g transform="matrix(1.4316,0,0,1.4316,-134.014,-134.547)">
                    <path d="M379.86,170.38C380.511,170.194 381.183,170.093 381.86,170.08C382.16,170.08 382.46,170.01 382.51,169.79C382.547,169.445 382.48,169.097 382.32,168.79C382.05,167.98 381.76,167.14 381.45,166.25C380.645,164.094 380,161.881 379.52,159.63C380.489,161.716 381.298,163.872 381.94,166.08C382.23,166.97 382.51,167.82 382.77,168.63C382.959,169.032 383.008,169.486 382.91,169.92C382.822,170.145 382.633,170.315 382.4,170.38C382.23,170.422 382.055,170.442 381.88,170.44C381.207,170.511 380.528,170.491 379.86,170.38Z" style="fill:rgb(38,50,56);fill-rule:nonzero;"/>
                </g>
                <g transform="matrix(1.4316,0,0,1.4316,-134.014,-134.547)">
                    <path d="M375.92,171.61C374.7,170.81 379.31,173.61 381.75,173.56C380.894,174.849 379.236,175.365 377.8,174.79C375.22,173.72 375.92,171.61 375.92,171.61Z" style="fill:white;fill-rule:nonzero;"/>
                </g>
                <g transform="matrix(1.4316,0,0,1.4316,-134.014,-134.547)">
                    <path d="M380.45,185.62C376.3,185.506 372.272,184.185 368.86,181.82C365.448,179.455 371.59,188.33 380.3,187.82L380.45,185.62Z" style="fill:rgb(235,153,110);fill-rule:nonzero;"/>
                </g>
                <g transform="matrix(1.4316,0,0,1.4316,-134.014,-134.547)">
                    <path d="M346.22,161.1C346.22,168.83 344.17,189.28 358.22,192.1L357.75,164C357.75,164 371.4,157.56 373.75,144.15L373.83,144.23C374.7,146.23 376.26,150.6 375.31,154.14L388.1,157.29L389.57,158.63C389.57,158.63 394.12,148.63 385.34,139.63C376.56,130.63 369.05,137.14 364.34,136.63C361.21,136.25 350.34,136.32 345.93,155.02L346.22,161.1Z" style="fill:rgb(38,50,56);fill-rule:nonzero;"/>
                </g>
                <g transform="matrix(1.4316,0,0,1.4316,-134.014,-134.547)">
                    <path d="M358.1,164.27C356.91,163.53 355.28,164.14 354.34,165.17C353.467,166.117 352.981,167.359 352.981,168.648C352.981,171.462 355.297,173.778 358.111,173.778C358.563,173.778 359.014,173.718 359.45,173.6" style="fill:rgb(255,190,157);fill-rule:nonzero;"/>
                </g>
                <g transform="matrix(1.4316,0,0,1.4316,-134.014,-134.547)">
                    <path d="M357.83,170.93C357.83,170.99 357.43,171.06 356.83,170.93C355.974,170.715 355.275,170.094 354.96,169.27C354.795,168.793 354.817,168.272 355.02,167.81C355.185,167.448 355.449,167.14 355.78,166.92C356.34,166.56 356.78,166.59 356.78,166.65C356.78,166.71 356.43,166.84 356.01,167.22C355.46,167.674 355.245,168.423 355.47,169.1C355.743,169.78 356.287,170.316 356.97,170.58C357.46,170.78 357.83,170.85 357.83,170.93Z" style="fill:rgb(235,153,110);fill-rule:nonzero;"/>
                </g>
                <g transform="matrix(1.4316,0,0,1.4316,-134.014,-134.547)">
                    <path d="M356.66,172.69C356.194,172.783 355.855,173.196 355.855,173.671C355.855,174.219 356.306,174.671 356.855,174.671C357.404,174.671 357.855,174.219 357.855,173.671C357.855,173.196 357.516,172.783 357.05,172.69" style="fill:rgb(97,129,247);fill-rule:nonzero;"/>
                </g>
                <g transform="matrix(1.4316,0,0,1.4316,-134.014,-134.547)">
                    <path d="M382.56,238L382.56,223.31C382.56,223.31 360.75,227.83 360.35,237.82L382.56,238Z" style="fill:rgb(255,190,157);fill-rule:nonzero;"/>
                </g>
                <g transform="matrix(1.4316,0,0,1.4316,-134.014,-134.547)">
                    <path d="M380.29,191.53C381.045,200.855 388.836,208.176 398.19,208.35C401.41,208.4 404.8,207.64 407.74,208.95C410.3,210.1 411.95,212.57 413.96,214.52C418.838,219.121 425.856,220.71 432.24,218.66C434.89,217.77 439.08,215.87 439.57,213.13C439.95,211.04 437.39,208.96 435.89,207.47C434.306,206.051 432.489,204.914 430.52,204.11C414.98,196.81 398.31,191.51 381.17,190.6" style="fill:rgb(38,50,56);fill-rule:nonzero;"/>
                </g>
            </g>
        </g>
    </g>
    <g id="freepik--Document--inject-15">
    </g>
    <g id="freepik--Pointer--inject-15">
    </g>
    <g id="freepik--Plus--inject-15">
    </g>
    <g id="freepik--search-engine--inject-15">
    </g>
    <g id="freepik--Character--inject-15">
    </g>
</svg>
