<svg width="284" height="126" viewBox="0 0 284 126" fill="none" xmlns="http://www.w3.org/2000/svg">
<g clip-path="url(#clip0_40_381)">
<path d="M120.904 80.4969H5.85014C4.29912 80.4952 2.81213 79.8787 1.71539 78.7828C0.618653 77.6868 0.00174091 76.2009 0 74.651V4.45183C0.00130732 3.27156 0.471079 2.14 1.30625 1.30541C2.14142 0.470814 3.27379 0.00134361 4.45493 -3.8147e-06H122.234C123.432 0.00134528 124.581 0.477772 125.429 1.32475C126.277 2.17172 126.753 3.32008 126.755 4.51787V74.651C126.753 76.2009 126.136 77.6868 125.039 78.7828C123.943 79.8787 122.456 80.4952 120.904 80.4969Z" fill="white"/>
<path d="M120.904 80.4969H5.85014C4.29912 80.4952 2.81213 79.8787 1.71539 78.7828C0.618653 77.6868 0.00174091 76.2009 0 74.651V4.45183C0.00130732 3.27156 0.471079 2.14 1.30625 1.30541C2.14142 0.470814 3.27379 0.00134361 4.45493 -3.8147e-06H122.234C123.432 0.00134528 124.581 0.477772 125.429 1.32475C126.277 2.17172 126.753 3.32008 126.755 4.51787V74.651C126.753 76.2009 126.136 77.6868 125.039 78.7828C123.943 79.8787 122.456 80.4952 120.904 80.4969ZM4.45493 1.26397C3.60915 1.26496 2.79831 1.60115 2.20027 2.19878C1.60224 2.79641 1.26584 3.60668 1.2649 4.45183V74.651C1.26628 75.8658 1.74981 77.0304 2.60941 77.8894C3.46901 78.7484 4.63448 79.2315 5.85014 79.2329H120.904C122.12 79.2315 123.286 78.7484 124.145 77.8894C125.005 77.0304 125.488 75.8658 125.49 74.651V4.51787C125.489 3.65519 125.145 2.8281 124.535 2.21808C123.925 1.60807 123.097 1.26494 122.234 1.26397H4.45493Z" fill="#E6E6E6"/>
<path d="M52.5284 62.7235H18.0537C17.2103 62.7222 16.3959 62.4153 15.7617 61.8595C15.1276 61.3038 14.7167 60.5371 14.6053 59.7016C14.5843 59.5512 14.5743 59.3994 14.5753 59.2475V21.2493C14.5763 20.3278 14.9431 19.4442 15.5952 18.7926C16.2473 18.141 17.1315 17.7744 18.0537 17.7734H52.5284C53.4507 17.7744 54.3348 18.141 54.9869 18.7926C55.639 19.4442 56.0059 20.3278 56.0069 21.2493V59.2475C56.0059 60.1691 55.639 61.0526 54.9869 61.7042C54.3348 62.3559 53.4507 62.7224 52.5284 62.7235ZM18.0537 19.6693C17.6345 19.6698 17.2326 19.8364 16.9362 20.1326C16.6398 20.4288 16.4731 20.8304 16.4726 21.2493V59.2475C16.4719 59.3125 16.4759 59.3774 16.4846 59.4418C16.5331 59.8238 16.719 60.1752 17.0078 60.4302C17.2965 60.6852 17.6683 60.8265 18.0537 60.8275H52.5284C52.9476 60.827 53.3495 60.6604 53.6459 60.3642C53.9423 60.068 54.1091 59.6664 54.1095 59.2475V21.2493C54.1091 20.8304 53.9423 20.4288 53.6459 20.1326C53.3495 19.8364 52.9476 19.6698 52.5284 19.6693H18.0537Z" fill="#E6E6E6"/>
<path d="M109.65 50.3681H67.9082C67.2373 50.3681 66.5938 50.1018 66.1194 49.6277C65.6449 49.1536 65.3784 48.5106 65.3784 47.8401C65.3784 47.1697 65.6449 46.5267 66.1194 46.0526C66.5938 45.5785 67.2373 45.3122 67.9082 45.3122H109.65C110.321 45.3122 110.964 45.5785 111.439 46.0526C111.913 46.5267 112.18 47.1697 112.18 47.8401C112.18 48.5106 111.913 49.1536 111.439 49.6277C110.964 50.1018 110.321 50.3681 109.65 50.3681Z" fill="#E6E6E6"/>
<path d="M90.6763 39.6243H67.9082C67.2373 39.6243 66.5938 39.358 66.1194 38.8839C65.6449 38.4098 65.3784 37.7668 65.3784 37.0964C65.3784 36.4259 65.6449 35.7829 66.1194 35.3088C66.5938 34.8347 67.2373 34.5684 67.9082 34.5684H90.6763C91.3473 34.5684 91.9907 34.8347 92.4652 35.3088C92.9396 35.7829 93.2061 36.4259 93.2061 37.0964C93.2061 37.7668 92.9396 38.4098 92.4652 38.8839C91.9907 39.358 91.3473 39.6243 90.6763 39.6243Z" fill="#E6E6E6"/>
<path d="M46.6581 39.2041C46.6581 44.7887 41.4905 43.944 35.1159 43.944C28.7413 43.944 23.5737 44.7887 23.5737 39.2041C23.5737 33.6195 26.098 23.7204 35.1159 23.7204C44.4445 23.7204 46.6581 33.6195 46.6581 39.2041Z" fill="#2F2E41"/>
<path d="M47.1251 48.6029C46.9025 47.9608 46.4586 47.4187 45.8729 47.0735C45.7598 47.0041 45.6414 46.9439 45.5187 46.8934C45.005 46.6799 44.4401 46.6207 43.8933 46.7228C43.3464 46.825 42.8411 47.0841 42.4393 47.4686C42.0374 47.8531 41.7563 48.3462 41.6304 48.8877C41.5045 49.4293 41.5392 49.9957 41.7303 50.5178L46.3282 60.9614H52.3839L47.1251 48.6029Z" fill="#3F3D56"/>
<path d="M27.0603 49.1717C26.6969 48.9962 26.3005 48.8995 25.897 48.8879C25.4935 48.8763 25.0922 48.95 24.7192 49.1043C24.3463 49.2585 24.0102 49.4898 23.733 49.783C23.4558 50.0762 23.2438 50.4246 23.1108 50.8054L18.8291 60.8698C19.0484 60.931 19.275 60.9618 19.5026 60.9614H24.8753L28.5054 52.7203C28.7476 52.0551 28.7338 51.3236 28.4668 50.6679C28.1997 50.0122 27.6985 49.479 27.0603 49.1717Z" fill="#3F3D56"/>
<path d="M35.0773 43.9347C39.3668 43.9347 42.8441 40.4599 42.8441 36.1735C42.8441 31.8872 39.3668 28.4124 35.0773 28.4124C30.7879 28.4124 27.3105 31.8872 27.3105 36.1735C27.3105 40.4599 30.7879 43.9347 35.0773 43.9347Z" fill="#FFB8B8"/>
<path d="M46.0085 47.1968C45.9644 47.1557 45.92 47.1114 45.8726 47.0735C45.3312 46.5857 44.6904 46.221 43.9944 46.0044C43.2984 45.7878 42.5636 45.7246 41.8408 45.819L27.5284 47.6297C26.2173 47.7917 25.021 48.4578 24.1933 49.4867C23.3656 50.5156 22.9716 51.8262 23.095 53.1406C23.291 55.3462 23.6073 58.1301 24.1133 60.9614H46.7233L47.5549 51.3047C47.6218 50.5479 47.5176 49.7858 47.2499 49.0747C46.9822 48.3636 46.558 47.7218 46.0085 47.1968Z" fill="#3F3D56"/>
<path d="M26.1035 35.4122H29.1754L30.5306 31.6202L30.8016 35.4122H32.2699L33.0604 33.2002L33.2186 35.4122H44.1283C44.1283 33.2332 43.262 31.1434 41.7202 29.6027C40.1783 28.0619 38.087 27.1963 35.9064 27.1963H34.3253C32.1448 27.1963 30.0535 28.0619 28.5116 29.6027C26.9697 31.1434 26.1035 33.2332 26.1035 35.4122Z" fill="#2F2E41"/>
<path d="M157.246 74.651V4.51788C157.247 3.32008 157.724 2.17173 158.571 1.32475C159.419 0.477776 160.568 0.00134909 161.767 0H279.545C280.726 0.00134742 281.859 0.470818 282.694 1.30541C283.529 2.14001 283.999 3.27156 284 4.45184V74.651C283.998 76.2009 283.382 77.6868 282.285 78.7828C281.188 79.8787 279.701 80.4952 278.15 80.4969H163.096C161.545 80.4952 160.058 79.8787 158.961 78.7828C157.864 77.6868 157.247 76.2009 157.246 74.651Z" fill="white"/>
<path d="M157.246 74.651V4.51788C157.247 3.32008 157.724 2.17173 158.571 1.32475C159.419 0.477776 160.568 0.00134909 161.767 0H279.545C280.726 0.00134742 281.859 0.470818 282.694 1.30541C283.529 2.14001 283.999 3.27156 284 4.45184V74.651C283.998 76.2009 283.382 77.6868 282.285 78.7828C281.188 79.8787 279.701 80.4952 278.15 80.4969H163.096C161.545 80.4952 160.058 79.8787 158.961 78.7828C157.864 77.6868 157.247 76.2009 157.246 74.651ZM161.767 1.26397C160.903 1.26494 160.076 1.60807 159.465 2.21809C158.855 2.82811 158.511 3.65519 158.511 4.51788V74.651C158.512 75.8658 158.995 77.0304 159.855 77.8894C160.715 78.7484 161.88 79.2316 163.096 79.2329H278.15C279.366 79.2316 280.531 78.7484 281.391 77.8894C282.25 77.0304 282.734 75.8658 282.735 74.651V4.45184C282.734 3.60668 282.398 2.79641 281.8 2.19878C281.202 1.60115 280.391 1.26496 279.545 1.26397H161.767Z" fill="#E6E6E6"/>
<path d="M227.993 59.2475V21.2493C227.994 20.3278 228.361 19.4442 229.013 18.7926C229.665 18.141 230.549 17.7744 231.472 17.7734H265.946C266.869 17.7744 267.753 18.141 268.405 18.7926C269.057 19.4442 269.424 20.3278 269.425 21.2493V59.2475C269.426 59.3994 269.416 59.5512 269.395 59.7016C269.283 60.5371 268.873 61.3038 268.238 61.8595C267.604 62.4153 266.79 62.7222 265.946 62.7235H231.472C230.549 62.7224 229.665 62.3559 229.013 61.7042C228.361 61.0526 227.994 60.1691 227.993 59.2475ZM231.472 19.6693C231.052 19.6698 230.651 19.8364 230.354 20.1326C230.058 20.4288 229.891 20.8304 229.891 21.2493V59.2475C229.891 59.6664 230.058 60.068 230.354 60.3642C230.651 60.6604 231.052 60.827 231.472 60.8275H265.946C266.332 60.8265 266.704 60.6852 266.992 60.4302C267.281 60.1752 267.467 59.8238 267.515 59.4418C267.524 59.3774 267.528 59.3125 267.527 59.2475V21.2493C267.527 20.8304 267.36 20.4288 267.064 20.1326C266.767 19.8364 266.366 19.6698 265.946 19.6693H231.472Z" fill="#E6E6E6"/>
<path d="M171.821 47.8401C171.822 47.1699 172.088 46.5274 172.563 46.0535C173.037 45.5795 173.68 45.313 174.351 45.3122H216.092C216.763 45.3122 217.407 45.5785 217.881 46.0526C218.355 46.5267 218.622 47.1697 218.622 47.8401C218.622 48.5106 218.355 49.1536 217.881 49.6277C217.407 50.1018 216.763 50.3681 216.092 50.3681H174.351C173.68 50.3673 173.037 50.1007 172.563 49.6268C172.088 49.1529 171.822 48.5104 171.821 47.8401Z" fill="#E6E6E6"/>
<path d="M171.821 37.0964C171.822 36.4261 172.088 35.7836 172.563 35.3097C173.037 34.8358 173.68 34.5692 174.351 34.5684H197.119C197.79 34.5684 198.433 34.8347 198.908 35.3088C199.382 35.7829 199.648 36.4259 199.648 37.0964C199.648 37.7668 199.382 38.4098 198.908 38.8839C198.433 39.358 197.79 39.6243 197.119 39.6243H174.351C173.68 39.6235 173.037 39.357 172.563 38.883C172.088 38.4091 171.822 37.7666 171.821 37.0964Z" fill="#E6E6E6"/>
<path d="M240.189 32.5397C242.406 36.8952 244.154 41.3875 249.044 41.3875C251.392 41.3875 253.644 40.4554 255.305 38.7961C256.965 37.1368 257.898 34.8863 257.898 32.5397C257.898 30.1931 256.965 27.9426 255.305 26.2834C253.644 24.6241 251.392 23.6919 249.044 23.6919C244.074 23.6297 236.063 24.4328 240.189 32.5397Z" fill="#2F2E41"/>
<path d="M248.608 41.5598C252.897 41.5598 256.374 38.0851 256.374 33.7987C256.374 29.5124 252.897 26.0376 248.608 26.0376C244.318 26.0376 240.841 29.5124 240.841 33.7987C240.841 38.0851 244.318 41.5598 248.608 41.5598Z" fill="#A0616A"/>
<path d="M259.212 47.9457C258.711 47.4006 258.166 46.8975 257.583 46.4415C255.034 44.4449 251.838 43.4551 248.605 43.6608C248.476 43.6671 248.346 43.6766 248.217 43.6892C246.344 43.8388 244.526 44.385 242.881 45.2917C241.237 46.1983 239.804 47.4445 238.679 48.9474C237.537 50.4732 236.734 52.2252 236.324 54.0862C235.913 55.9473 235.906 57.8744 236.301 59.7386C236.387 60.1336 236.462 60.5317 236.535 60.9299H262.282L262.579 58.9391C262.877 56.9716 262.728 54.9626 262.145 53.06C261.563 51.1574 260.56 49.4097 259.212 47.9457Z" fill="#3F3D56"/>
<path d="M263.155 50.0218C262.973 48.9834 262.433 48.0415 261.628 47.3602C260.823 46.6789 259.805 46.3012 258.75 46.293C258.709 46.293 258.664 46.2962 258.623 46.2962C258.272 46.3042 257.923 46.353 257.583 46.4415C257.012 46.5933 256.476 46.8564 256.006 47.2156C255.537 47.5749 255.143 48.0233 254.847 48.535C254.552 49.0468 254.36 49.6118 254.284 50.1978C254.207 50.7837 254.247 51.3789 254.402 51.9493L256.834 60.9298H265.017L263.155 50.0218Z" fill="#3F3D56"/>
<path d="M245.146 47.6676C244.837 47.0622 244.395 46.5349 243.852 46.1255C243.468 45.8356 243.039 45.6114 242.581 45.462C242.394 45.3981 242.203 45.3474 242.009 45.3103C240.951 45.1103 239.857 45.2946 238.923 45.83C237.99 46.3654 237.278 47.2166 236.918 48.2301L232.465 60.9298H240.915L245.225 51.5891C245.512 50.9728 245.654 50.2989 245.641 49.6192C245.627 48.9394 245.458 48.2718 245.146 47.6676Z" fill="#3F3D56"/>
<path d="M240.366 29.4125C242.141 30.6349 244.247 31.2855 246.403 31.2769C245.634 31.8096 244.758 32.1695 243.837 32.3316C246.703 32.946 249.665 32.9626 252.538 32.3805C253.176 32.2782 253.792 32.0667 254.359 31.7554C254.641 31.5978 254.887 31.3826 255.081 31.1237C255.275 30.8649 255.412 30.5682 255.483 30.2529C255.674 29.1632 254.824 28.1732 253.941 27.506C252.589 26.5 251.03 25.8069 249.377 25.4768C247.724 25.1468 246.019 25.188 244.384 25.5975C243.316 25.8732 242.246 26.3392 241.553 27.196C240.859 28.0528 240.654 29.3737 241.315 30.2559L240.366 29.4125Z" fill="#2F2E41"/>
<path d="M199.527 126H84.4727C82.9217 125.998 81.4347 125.382 80.3379 124.286C79.2412 123.19 78.6243 121.704 78.6226 120.154V49.9549C78.6239 48.7747 79.0936 47.6431 79.9288 46.8085C80.764 45.9739 81.8964 45.5044 83.0775 45.5031H200.856C202.055 45.5044 203.204 45.9809 204.052 46.8278C204.899 47.6748 205.376 48.8232 205.377 50.021V120.154C205.375 121.704 204.759 123.19 203.662 124.286C202.565 125.382 201.078 125.998 199.527 126Z" fill="white"/>
<path d="M199.527 126H84.4727C82.9217 125.998 81.4347 125.382 80.3379 124.286C79.2412 123.19 78.6243 121.704 78.6226 120.154V49.9549C78.6239 48.7747 79.0936 47.6431 79.9288 46.8085C80.764 45.9739 81.8964 45.5044 83.0775 45.5031H200.856C202.055 45.5044 203.204 45.9809 204.052 46.8278C204.899 47.6748 205.376 48.8232 205.377 50.021V120.154C205.375 121.704 204.759 123.19 203.662 124.286C202.565 125.382 201.078 125.998 199.527 126ZM83.0775 46.7671C82.2317 46.768 81.4209 47.1042 80.8228 47.7019C80.2248 48.2995 79.8884 49.1098 79.8875 49.9549V120.154C79.8888 121.369 80.3724 122.534 81.232 123.392C82.0916 124.251 83.257 124.735 84.4727 124.736H199.527C200.743 124.735 201.908 124.251 202.768 123.392C203.627 122.534 204.111 121.369 204.112 120.154V50.021C204.111 49.1583 203.768 48.3312 203.158 47.7212C202.547 47.1112 201.719 46.768 200.856 46.7671H83.0775Z" fill="#3F3D56"/>
<path d="M131.151 108.227H96.6763C95.8328 108.225 95.0184 107.918 94.3843 107.363C93.7501 106.807 93.3392 106.04 93.2279 105.205C93.2069 105.054 93.1969 104.903 93.1978 104.751V66.7524C93.1989 65.8308 93.5657 64.9473 94.2178 64.2957C94.8699 63.6441 95.7541 63.2775 96.6763 63.2765H131.151C132.073 63.2775 132.957 63.6441 133.609 64.2957C134.262 64.9473 134.628 65.8308 134.629 66.7524V104.751C134.628 105.672 134.262 106.556 133.609 107.207C132.957 107.859 132.073 108.226 131.151 108.227ZM96.6763 65.1724C96.2571 65.1729 95.8552 65.3395 95.5588 65.6357C95.2624 65.9319 95.0956 66.3335 95.0952 66.7524V104.751C95.0945 104.816 95.0985 104.881 95.1072 104.945C95.1556 105.327 95.3416 105.678 95.6303 105.933C95.9191 106.188 96.2909 106.33 96.6763 106.331H131.151C131.57 106.33 131.972 106.164 132.268 105.867C132.565 105.571 132.732 105.17 132.732 104.751V66.7524C132.732 66.3335 132.565 65.9319 132.268 65.6357C131.972 65.3395 131.57 65.1729 131.151 65.1724H96.6763Z" fill="#E6E6E6"/>
<path d="M113.413 70.2232C111.169 69.18 108.414 68.838 106.13 69.8074C103.846 70.7768 102.29 73.2617 103.028 75.4608C103.363 76.4578 104.125 77.4384 103.828 78.4453C103.6 79.2204 102.802 79.7321 102.019 80.096C101.235 80.4598 100.378 80.7657 99.8118 81.3794C99.2453 81.9931 99.1271 83.0495 99.8348 83.5254C100.068 83.6822 100.359 83.7566 100.585 83.9218C100.778 84.0783 100.917 84.2909 100.983 84.5301C101.049 84.7692 101.039 85.023 100.954 85.256C100.765 85.7249 100.454 86.1343 100.052 86.4412C99.2488 87.1335 98.187 87.9259 98.4365 88.9087C98.529 89.1714 98.6836 89.4078 98.8872 89.5981C99.0907 89.7883 99.3371 89.9266 99.6056 90.0014C100.163 90.162 100.742 90.2383 101.322 90.2277L125.028 90.9739C125.81 91.0327 126.597 90.9888 127.368 90.8433C127.743 90.775 128.1 90.6301 128.416 90.4178C128.732 90.2055 129.002 89.9303 129.207 89.6093C129.661 88.7697 129.362 87.7353 128.802 86.9512C128.241 86.1672 127.448 85.5487 126.792 84.8287C126.137 84.1087 125.6 83.21 125.716 82.2794C125.808 81.5345 126.3 80.8907 126.653 80.2139C127.006 79.5371 127.211 78.6913 126.754 78.0686C126.11 77.1912 124.563 77.2706 123.831 76.453C123.278 75.836 123.385 74.9478 123.33 74.1522C123.198 72.2383 121.872 70.4309 119.984 69.5916C119.024 69.1798 117.98 69.0021 116.938 69.073C115.896 69.1439 114.886 69.4615 113.991 69.9994L113.413 70.2232Z" fill="#2F2E41"/>
<path d="M114.29 90.7904C118.58 90.7904 122.057 87.3156 122.057 83.0293C122.057 78.7429 118.58 75.2681 114.29 75.2681C110.001 75.2681 106.523 78.7429 106.523 83.0293C106.523 87.3156 110.001 90.7904 114.29 90.7904Z" fill="#A0616A"/>
<path d="M124.487 100.813C124.479 99.453 124.102 98.1202 123.396 96.9571C122.69 95.794 121.681 94.8443 120.477 94.209C120.38 94.1553 120.278 94.1079 120.177 94.0605C119.303 93.6465 118.357 93.4062 117.391 93.3527L109.998 92.9387C108.954 92.8792 107.909 93.0396 106.931 93.4096C106.692 93.4982 106.459 93.5995 106.232 93.7129C105.517 94.0647 104.864 94.5288 104.296 95.0875C103.549 95.8246 102.965 96.7097 102.58 97.686C102.196 98.6623 102.02 99.7082 102.064 100.756L102.197 103.888L103.126 106.299H123.798C124.054 105.988 124.277 105.652 124.462 105.294C124.812 104.6 124.997 103.834 125.001 103.057C125.006 102.279 124.83 101.511 124.487 100.813Z" fill="#3F3D56"/>
<path d="M123.981 96.6612C123.644 95.9298 123.115 95.3031 122.451 94.8474C121.972 94.5191 121.434 94.2853 120.867 94.1585C120.64 94.1086 120.409 94.0759 120.177 94.0605C119.721 94.0295 119.262 94.0689 118.818 94.1775C118.154 94.3425 117.536 94.6561 117.012 95.0946C116.487 95.533 116.069 96.085 115.789 96.7086C115.509 97.3323 115.374 98.0113 115.396 98.6945C115.417 99.3777 115.593 100.047 115.911 100.652L118.754 106.03L118.897 106.299H128.444L123.981 96.6612Z" fill="#3F3D56"/>
<path d="M108.357 93.8583C107.909 93.6309 107.428 93.4793 106.931 93.4096C106.561 93.3569 106.186 93.3516 105.814 93.3938C104.87 93.5007 103.983 93.9032 103.281 94.544C102.579 95.1847 102.098 96.0308 101.906 96.9614L99.98 106.299H107.512L108.92 105.724L110.672 99.0059C110.926 98.0127 110.836 96.9625 110.416 96.0273C109.995 95.0921 109.269 94.3273 108.357 93.8583Z" fill="#3F3D56"/>
<path d="M106.345 81.9259C108.797 81.729 110.834 79.2805 110.579 76.8349C110.55 77.843 110.893 78.8264 111.543 79.5981C112.192 80.3699 113.103 80.8761 114.102 81.0205C115.227 81.1444 116.46 80.8042 117.44 81.3714C118.524 81.9996 118.871 83.5251 120.001 84.0677C121.093 84.592 122.48 83.877 123.019 82.7932C123.559 81.7095 123.426 80.4074 123.069 79.2509C122.559 77.6016 121.631 76.1123 120.374 74.9277C119.118 73.7431 117.576 72.9036 115.899 72.4909C114.221 72.0781 112.466 72.1062 110.803 72.5723C109.139 73.0384 107.625 73.9267 106.407 75.1509C105.376 76.1875 104.557 77.5086 104.424 78.9643C104.291 80.4201 104.967 81.9996 106.275 82.6535L106.345 81.9259Z" fill="#2F2E41"/>
<path d="M188.272 95.8712H146.531C145.86 95.8712 145.216 95.6048 144.742 95.1308C144.268 94.6567 144.001 94.0137 144.001 93.3432C144.001 92.6728 144.268 92.0298 144.742 91.5557C145.216 91.0816 145.86 90.8153 146.531 90.8153H188.272C188.943 90.8153 189.587 91.0816 190.061 91.5557C190.536 92.0298 190.802 92.6728 190.802 93.3432C190.802 94.0137 190.536 94.6567 190.061 95.1308C189.587 95.6048 188.943 95.8712 188.272 95.8712Z" fill="#E6E6E6"/>
<path d="M169.299 85.1274H146.531C145.86 85.1274 145.216 84.8611 144.742 84.387C144.268 83.9129 144.001 83.2699 144.001 82.5994C144.001 81.929 144.268 81.286 144.742 80.8119C145.216 80.3378 145.86 80.0715 146.531 80.0715H169.299C169.97 80.0715 170.613 80.3378 171.088 80.8119C171.562 81.286 171.829 81.929 171.829 82.5994C171.829 83.2699 171.562 83.9129 171.088 84.387C170.613 84.8611 169.97 85.1274 169.299 85.1274Z" fill="#052943"/>
<path d="M181.515 103.589C179.306 103.593 177.188 104.473 175.627 106.036C174.066 107.598 173.189 109.716 173.189 111.924C173.189 114.132 174.066 116.25 175.627 117.813C177.188 119.375 179.306 120.255 181.515 120.26H181.515C183.725 120.255 185.843 119.375 187.404 117.813C188.965 116.25 189.841 114.132 189.841 111.924C189.841 109.716 188.965 107.598 187.404 106.036C185.843 104.473 183.725 103.593 181.515 103.589Z" fill="#052943"/>
<path d="M180.724 115.386C180.504 115.386 180.291 115.315 180.115 115.184L180.104 115.176L177.81 113.422C177.596 113.258 177.456 113.015 177.421 112.747C177.386 112.48 177.458 112.209 177.622 111.995C177.787 111.781 178.03 111.64 178.297 111.605C178.565 111.569 178.836 111.641 179.051 111.805L180.536 112.944L184.047 108.367C184.129 108.261 184.23 108.171 184.346 108.105C184.462 108.038 184.59 107.994 184.723 107.977C184.855 107.959 184.99 107.968 185.119 108.003C185.249 108.037 185.37 108.097 185.476 108.178L185.476 108.178L185.454 108.209L185.477 108.178C185.691 108.343 185.831 108.586 185.867 108.853C185.902 109.121 185.83 109.392 185.665 109.606L181.536 114.987C181.44 115.111 181.317 115.212 181.177 115.281C181.036 115.35 180.881 115.385 180.725 115.385L180.724 115.386Z" fill="white"/>
</g>
<defs>
<clipPath id="clip0_40_381">
<rect width="284" height="126" fill="white"/>
</clipPath>
</defs>
</svg>
