<svg width="235" height="165" viewBox="0 0 235 165" fill="none" xmlns="http://www.w3.org/2000/svg">
<g clip-path="url(#clip0_40_417)">
<path d="M198.417 114.585C198.174 114.315 197.993 113.995 197.886 113.646C197.779 113.298 197.75 112.931 197.8 112.57C197.85 112.21 197.978 111.864 198.175 111.559C198.372 111.253 198.634 110.994 198.941 110.801L196.974 102.171L201.265 103.783L202.475 111.731C202.764 112.271 202.846 112.899 202.704 113.496C202.563 114.092 202.209 114.616 201.709 114.968C201.208 115.32 200.597 115.475 199.991 115.404C199.384 115.334 198.824 115.042 198.417 114.585Z" fill="#FFB8B8"/>
<path d="M198.121 107.736L194.348 100.412L194.859 81.9721L195.101 82.4849C195.383 83.0824 202.002 97.1523 201.53 101.863L202.286 106.167L198.121 107.736Z" fill="#3F3D56"/>
<path d="M195.661 161.857H198.686L200.125 150.141L195.66 150.142L195.661 161.857Z" fill="#FFB8B8"/>
<path d="M194.89 160.865L200.846 160.865H200.847C201.853 160.865 202.819 161.267 203.531 161.982C204.243 162.696 204.643 163.666 204.643 164.677V164.801L194.89 164.801L194.89 160.865Z" fill="#2F2E41"/>
<path d="M165.776 159.549L168.69 160.362L173.202 149.462L168.901 148.261L165.776 159.549Z" fill="#FFB8B8"/>
<path d="M165.297 158.386L171.036 159.988L171.036 159.988C172.006 160.259 172.829 160.906 173.324 161.786C173.819 162.666 173.946 163.708 173.676 164.682L173.643 164.801L164.247 162.178L165.297 158.386Z" fill="#2F2E41"/>
<path d="M192.645 157.29L186.541 113.4L173.357 157.042L162.99 153.487L177.848 95.0494L177.946 95.0425L193.511 93.9553L204.756 153.742L192.645 157.29Z" fill="#2F2E41"/>
<path d="M191.031 74.3677C191.031 74.3677 185.357 71.3947 177.708 72.6335C177.708 72.6335 173.638 82.4955 177.708 86.4214L178.819 96.2932C178.819 96.2932 189.181 102.487 192.635 95.3022L192.141 87.1266C192.141 87.1266 194.608 83.2056 192.635 80.3351C191.452 78.5815 190.887 76.4808 191.031 74.3677Z" fill="#052943"/>
<path d="M191.75 119.27L192.746 98.5164L189.927 73.8283L190.056 73.8086C193.754 73.2488 194.94 79.6454 194.988 79.9179L201.424 116.457L191.75 119.27Z" fill="#3F3D56"/>
<path d="M179.202 119.486L167.825 118.216L167.828 118.092C167.868 116.4 168.847 76.632 171.591 73.8155C174.351 70.9823 179.56 72.2082 179.781 72.262L179.89 72.2886L178.954 89.1162L179.202 119.486Z" fill="#3F3D56"/>
<path d="M181.298 95.7174C180.953 95.831 180.588 95.8673 180.228 95.8238C179.868 95.7803 179.522 95.658 179.214 95.4656C178.906 95.2732 178.643 95.0153 178.445 94.7101C178.248 94.4049 178.119 94.0599 178.068 93.6993L169.416 91.9971L172.626 88.7151L180.35 90.8346C180.959 90.7891 181.564 90.9695 182.049 91.3415C182.534 91.7136 182.867 92.2515 182.984 92.8534C183.1 93.4553 182.993 94.0792 182.683 94.6071C182.372 95.135 181.879 95.53 181.298 95.7174Z" fill="#FFB8B8"/>
<path d="M176.681 93.7252L173.862 93.1166C169.7 94.3735 162.436 89.9486 159.5 87.9832C158.947 87.6135 158.768 86.8808 158.967 85.8058C159.261 84.3022 160.086 82.9559 161.291 82.0154L171.632 73.7823L174.241 73.3441L175.017 77.7554L168.429 84.8612L178.127 90.162L176.681 93.7252Z" fill="#3F3D56"/>
<path d="M175.566 68.8989V63.1786C175.566 60.7585 176.523 58.4374 178.227 56.7261C179.932 55.0148 182.243 54.0534 184.653 54.0534C187.063 54.0534 189.375 55.0148 191.079 56.7261C192.783 58.4374 193.74 60.7585 193.74 63.1786V68.8989C193.74 69.2239 193.611 69.5354 193.382 69.7652C193.154 69.995 192.843 70.1243 192.52 70.1247H176.787C176.463 70.1243 176.153 69.995 175.924 69.7652C175.695 69.5354 175.566 69.2239 175.566 68.8989Z" fill="#2F2E41"/>
<path d="M184.288 70.0684C187.967 70.0684 190.95 67.073 190.95 63.3781C190.95 59.6831 187.967 56.6878 184.288 56.6878C180.608 56.6878 177.625 59.6831 177.625 63.3781C177.625 67.073 180.608 70.0684 184.288 70.0684Z" fill="#FFB8B8"/>
<path d="M177.443 63.3523C177.379 63.2785 177.332 63.1919 177.305 63.0982C177.277 63.0045 177.27 62.906 177.284 62.8094L178.073 57.2908C178.089 57.1785 178.132 57.0719 178.199 56.9806C178.266 56.8893 178.355 56.8163 178.457 56.7681C182.485 54.8749 186.57 54.8725 190.598 56.7609C190.705 56.8117 190.797 56.8896 190.865 56.9868C190.933 57.084 190.975 57.1973 190.986 57.3155L191.513 62.8413C191.522 62.9358 191.511 63.0311 191.481 63.1212C191.451 63.2112 191.403 63.2941 191.34 63.3643C191.276 63.4345 191.199 63.4906 191.112 63.529C191.026 63.5674 190.932 63.5872 190.838 63.5872H189.502C189.373 63.5869 189.246 63.5498 189.138 63.4802C189.029 63.4107 188.942 63.3115 188.887 63.1943L188.311 61.9536C188.273 61.8733 188.211 61.8073 188.133 61.7657C188.055 61.724 187.966 61.709 187.879 61.7228C187.791 61.7365 187.711 61.7784 187.65 61.8421C187.588 61.9058 187.549 61.9878 187.538 62.0757L187.424 62.9905C187.403 63.1552 187.324 63.3066 187.2 63.4164C187.076 63.5263 186.917 63.587 186.751 63.5872H177.955C177.858 63.5872 177.762 63.5663 177.674 63.5257C177.585 63.4852 177.506 63.4261 177.443 63.3523Z" fill="#2F2E41"/>
<path d="M149.464 10.9955H0V104.458H149.464V10.9955Z" fill="#E6E6E6"/>
<path d="M37.397 29.0007H10.0227V46.8685H37.397V29.0007Z" fill="white"/>
<path d="M71.4117 29.0007H44.0374V46.8685H71.4117V29.0007Z" fill="white"/>
<path d="M105.426 29.0007H78.052V46.8685H105.426V29.0007Z" fill="white"/>
<path d="M139.441 29.0007H112.067V46.8685H139.441V29.0007Z" fill="white"/>
<path d="M37.397 54.2905H10.0227V72.1582H37.397V54.2905Z" fill="white"/>
<path d="M71.4117 54.2905H44.0374V72.1582H71.4117V54.2905Z" fill="white"/>
<path d="M105.426 54.2905H78.052V72.1582H105.426V54.2905Z" fill="white"/>
<path d="M139.441 54.2905H112.067V72.1582H139.441V54.2905Z" fill="white"/>
<path d="M37.397 79.5802H10.0227V97.448H37.397V79.5802Z" fill="white"/>
<path d="M71.4117 79.5802H44.0374V97.448H71.4117V79.5802Z" fill="white"/>
<path d="M105.426 79.5802H78.052V97.448H105.426V79.5802Z" fill="white"/>
<path d="M139.441 79.5802H112.067V97.448H139.441V79.5802Z" fill="white"/>
<path d="M39.1452 21.9911C41.413 21.9911 43.2514 20.145 43.2514 17.8678C43.2514 15.5905 41.413 13.7444 39.1452 13.7444C36.8774 13.7444 35.0391 15.5905 35.0391 17.8678C35.0391 20.145 36.8774 21.9911 39.1452 21.9911Z" fill="white"/>
<path d="M107.034 21.9911C109.301 21.9911 111.14 20.145 111.14 17.8678C111.14 15.5905 109.301 13.7444 107.034 13.7444C104.766 13.7444 102.927 15.5905 102.927 17.8678C102.927 20.145 104.766 21.9911 107.034 21.9911Z" fill="white"/>
<path d="M40.7876 0H37.5027V18.9673H40.7876V0Z" fill="#E6E6E6"/>
<path d="M108.676 0H105.391V18.9673H108.676V0Z" fill="#E6E6E6"/>
<path d="M131.944 37.9346C131.943 39.4274 131.405 40.8695 130.43 41.996C129.454 43.1225 128.107 43.8577 126.635 44.0665C125.163 44.2754 123.665 43.9437 122.417 43.1326C121.169 42.3215 120.255 41.0854 119.842 39.6515C119.428 38.2175 119.544 36.682 120.168 35.327C120.792 33.9721 121.882 32.8888 123.238 32.2761C124.593 31.6634 126.124 31.5626 127.547 31.9921C128.971 32.4216 130.193 33.3526 130.988 34.614C131.614 35.6074 131.945 36.759 131.944 37.9346Z" fill="#052943"/>
<path d="M130.987 34.614L124.894 40.7319C124.511 40.1365 122.377 37.3695 122.377 37.3695C122.651 37.092 122.942 36.8333 123.251 36.5953L125.02 38.9643L130.274 33.6884C130.54 33.9736 130.779 34.2835 130.987 34.614Z" fill="white"/>
<path d="M63.9149 63.2244C63.9135 64.7172 63.3757 66.1593 62.4003 67.2858C61.4249 68.4123 60.0774 69.1475 58.6055 69.3563C57.1335 69.5651 55.636 69.2335 54.388 68.4224C53.14 67.6113 52.2254 66.3752 51.8123 64.9412C51.3991 63.5072 51.5152 61.9717 52.1391 60.6168C52.7631 59.2618 53.853 58.1785 55.2085 57.5659C56.5641 56.9532 58.0944 56.8523 59.5181 57.2818C60.9418 57.7113 62.1633 58.6423 62.9582 59.9038C63.5842 60.8971 63.916 62.0488 63.9149 63.2244Z" fill="#052943"/>
<path d="M62.9581 59.9038L56.8645 66.0217C56.4816 65.4263 54.3479 62.6593 54.3479 62.6593C54.6213 62.3817 54.9131 62.1231 55.2213 61.8851L56.9906 64.254L62.2445 58.9781C62.5109 59.2634 62.7499 59.5733 62.9581 59.9038Z" fill="white"/>
<path d="M29.9001 63.2244C29.8987 64.7172 29.3609 66.1593 28.3855 67.2858C27.41 68.4123 26.0626 69.1475 24.5906 69.3563C23.1186 69.5651 21.6211 69.2335 20.3731 68.4224C19.1251 67.6113 18.2105 66.3752 17.7974 64.9412C17.3842 63.5072 17.5003 61.9717 18.1242 60.6168C18.7482 59.2618 19.8381 58.1785 21.1937 57.5658C22.5493 56.9532 24.0795 56.8523 25.5032 57.2818C26.9269 57.7113 28.1485 58.6423 28.9434 59.9038C29.5694 60.8972 29.9012 62.0488 29.9001 63.2244Z" fill="#052943"/>
<path d="M28.9434 59.9038L22.8499 66.0217C22.4669 65.4263 20.3333 62.6593 20.3333 62.6593C20.6067 62.3817 20.8985 62.1231 21.2066 61.8851L22.976 64.254L28.2299 58.9781C28.4963 59.2634 28.7352 59.5733 28.9434 59.9038Z" fill="white"/>
<path d="M234.729 165H131.379C131.307 165 131.238 164.971 131.187 164.92C131.136 164.869 131.108 164.8 131.108 164.728C131.108 164.655 131.136 164.586 131.187 164.535C131.238 164.484 131.307 164.455 131.379 164.455H234.729C234.801 164.455 234.87 164.484 234.921 164.535C234.972 164.586 235 164.655 235 164.728C235 164.8 234.972 164.869 234.921 164.92C234.87 164.971 234.801 165 234.729 165Z" fill="#3F3D56"/>
</g>
<defs>
<clipPath id="clip0_40_417">
<rect width="235" height="165" fill="white"/>
</clipPath>
</defs>
</svg>
